<svg width="46" height="40" viewBox="0 0 46 40" fill="none" xmlns="http://www.w3.org/2000/svg">
<path d="M45.7923 26.4845C45.7923 33.4043 40.1828 39.0138 33.263 39.0138L14.4692 39.0138C12.547 39.0138 10.9888 37.4556 10.9888 35.5334L10.9888 11.8671C10.9888 8.02279 14.1052 4.90639 17.9495 4.90639L42.312 4.90639C44.2341 4.90639 45.7923 6.4646 45.7923 8.38674L45.7923 26.4845Z" fill="#FBC02D"/>
<path d="M19.2834 13.2668C19.0662 13.2668 18.8896 13.0905 18.8896 12.8731V12.2039C18.8896 11.9867 19.0659 11.8102 19.2834 11.8102C19.5006 11.8102 19.6771 11.9865 19.6771 12.2039V12.8731C19.6771 13.0905 19.5006 13.2668 19.2834 13.2668Z" fill="#103E13"/>
<path d="M17.628 13.2668C17.4108 13.2668 17.2343 13.0905 17.2343 12.8731V12.2039C17.2343 11.9867 17.4105 11.8102 17.628 11.8102C17.8452 11.8102 18.0217 11.9865 18.0217 12.2039V12.8731C18.0215 13.0905 17.8455 13.2668 17.628 13.2668Z" fill="#103E13"/>
<path d="M15.9727 13.2668C15.7555 13.2668 15.579 13.0905 15.579 12.8731V12.2039C15.579 11.9867 15.7553 11.8102 15.9727 11.8102C16.1899 11.8102 16.3665 11.9865 16.3665 12.2039V12.8731C16.3665 13.0905 16.1902 13.2668 15.9727 13.2668Z" fill="#103E13"/>
<path d="M19.2834 16.0032C19.0662 16.0032 18.8896 15.8269 18.8896 15.6094V14.9406C18.8896 14.7234 19.0659 14.5468 19.2834 14.5468C19.5006 14.5468 19.6771 14.7231 19.6771 14.9406V15.6094C19.6771 15.8269 19.5006 16.0032 19.2834 16.0032Z" fill="#103E13"/>
<path d="M17.628 16.0032C17.4108 16.0032 17.2343 15.8269 17.2343 15.6094V14.9406C17.2343 14.7234 17.4105 14.5468 17.628 14.5468C17.8452 14.5468 18.0217 14.7231 18.0217 14.9406V15.6094C18.0215 15.8269 17.8455 16.0032 17.628 16.0032Z" fill="#103E13"/>
<path d="M15.9727 16.0032C15.7555 16.0032 15.579 15.8269 15.579 15.6094V14.9406C15.579 14.7234 15.7553 14.5468 15.9727 14.5468C16.1899 14.5468 16.3665 14.7231 16.3665 14.9406V15.6094C16.3665 15.8269 16.1902 16.0032 15.9727 16.0032Z" fill="#103E13"/>
<path d="M19.2834 18.7397C19.0662 18.7397 18.8896 18.5634 18.8896 18.3459V17.6768C18.8896 17.4596 19.0659 17.283 19.2834 17.283C19.5006 17.283 19.6771 17.4593 19.6771 17.6768V18.3459C19.6771 18.5634 19.5006 18.7397 19.2834 18.7397Z" fill="#103E13"/>
<path d="M17.628 18.7397C17.4108 18.7397 17.2343 18.5634 17.2343 18.3459V17.6768C17.2343 17.4596 17.4105 17.283 17.628 17.283C17.8452 17.283 18.0217 17.4593 18.0217 17.6768V18.3459C18.0215 18.5634 17.8455 18.7397 17.628 18.7397Z" fill="#103E13"/>
<path d="M15.9727 18.7397C15.7555 18.7397 15.579 18.5634 15.579 18.3459V17.6768C15.579 17.4596 15.7553 17.283 15.9727 17.283C16.1899 17.283 16.3665 17.4593 16.3665 17.6768V18.3459C16.3665 18.5634 16.1902 18.7397 15.9727 18.7397Z" fill="#103E13"/>
<path d="M19.2834 21.4755C19.0662 21.4755 18.8896 21.2992 18.8896 21.0818V20.4126C18.8896 20.1954 19.0659 20.0189 19.2834 20.0189C19.5006 20.0189 19.6771 20.1951 19.6771 20.4126V21.0818C19.6771 21.2992 19.5006 21.4755 19.2834 21.4755Z" fill="#103E13"/>
<path d="M17.628 21.4755C17.4108 21.4755 17.2343 21.2992 17.2343 21.0818V20.4126C17.2343 20.1954 17.4105 20.0189 17.628 20.0189C17.8452 20.0189 18.0217 20.1951 18.0217 20.4126V21.0818C18.0215 21.2992 17.8455 21.4755 17.628 21.4755Z" fill="#103E13"/>
<path d="M15.9727 21.4755C15.7555 21.4755 15.579 21.2992 15.579 21.0818V20.4126C15.579 20.1954 15.7553 20.0189 15.9727 20.0189C16.1899 20.0189 16.3665 20.1951 16.3665 20.4126V21.0818C16.3665 21.2992 16.1902 21.4755 15.9727 21.4755Z" fill="#103E13"/>
<path d="M19.2834 24.2119C19.0662 24.2119 18.8896 24.0356 18.8896 23.8181V23.1492C18.8896 22.9321 19.0659 22.7555 19.2834 22.7555C19.5006 22.7555 19.6771 22.9318 19.6771 23.1492V23.8181C19.6771 24.0353 19.5006 24.2119 19.2834 24.2119Z" fill="#103E13"/>
<path d="M17.628 24.2119C17.4108 24.2119 17.2343 24.0356 17.2343 23.8181V23.1492C17.2343 22.9321 17.4105 22.7555 17.628 22.7555C17.8452 22.7555 18.0217 22.9318 18.0217 23.1492V23.8181C18.0215 24.0353 17.8455 24.2119 17.628 24.2119Z" fill="#103E13"/>
<path d="M15.9727 24.2119C15.7555 24.2119 15.579 24.0356 15.579 23.8181L15.5793 23.1492C15.5793 22.9321 15.7555 22.7555 15.973 22.7555C16.1902 22.7555 16.3668 22.9318 16.3668 23.1492V23.8181C16.3665 24.0353 16.1902 24.2119 15.9727 24.2119Z" fill="#103E13"/>
<path d="M4.72451 26.9351C4.72451 27.1522 4.90079 27.3288 5.11826 27.3288H29.0963C29.3135 27.3288 29.49 27.1525 29.49 26.9351C29.49 26.7179 29.3138 26.5413 29.0963 26.5413H28.3684V15.2362C28.3684 15.019 28.1921 14.8425 27.9747 14.8425L21.546 14.8428V6.69239C21.546 6.55456 21.474 6.42715 21.3565 6.35576C21.2393 6.2841 21.0926 6.2797 20.9707 6.34313L13.6618 10.1485C13.5313 10.2163 13.4501 10.3509 13.4501 10.4978V17.617H6.37657C6.15938 17.617 5.98282 17.7933 5.98282 18.0107V26.5414H5.11738C4.90019 26.5411 4.72418 26.7174 4.72418 26.9348L4.72451 26.9351ZM21.5461 20.8062H27.5813V26.5416L21.5461 26.5414V20.8062ZM21.5461 18.07H27.5813V20.019L21.5461 20.0187V18.07ZM21.5461 15.6298H27.5813V17.2831H21.5461V15.6298ZM14.2371 10.7369L20.7583 7.34142V26.541H14.2371V10.7369ZM8.71675 23.3965C8.71675 22.5793 9.3642 21.9143 10.1602 21.9143C10.9562 21.9143 11.6039 22.5791 11.6039 23.3965V26.5415H8.71675V23.3965ZM6.77029 18.4043H13.4499V26.5413H12.3914V23.3963C12.3914 22.1451 11.3909 21.127 10.1602 21.127C8.93009 21.127 7.92955 22.1448 7.92955 23.3963V26.5413H6.77029V18.4043Z" fill="#103E13"/>
</svg>
