<svg width="39" height="35" viewBox="0 0 39 35" fill="none" xmlns="http://www.w3.org/2000/svg">
<g clip-path="url(#clip0_302_1256)">
<path d="M38.8874 14.5515C38.8913 14.5224 38.8913 14.4931 38.8874 14.4641C38.8911 14.4404 38.8911 14.4163 38.8874 14.3926L38.6037 12.3513C38.5628 12.107 38.4534 11.8788 38.2878 11.692L38.2391 11.6364L38.1501 11.549L33.2403 7.40284L33.378 7.53788C33.2653 7.4057 33.1239 7.29998 32.964 7.2285C32.8042 7.15702 32.63 7.1216 32.4544 7.12484H30.9636C30.7212 7.12013 30.4843 7.19569 30.2911 7.3393C30.0883 7.19656 29.8441 7.12138 29.5944 7.12484H28.1036C27.9081 7.12173 27.7152 7.1693 27.5445 7.26275C27.3738 7.3562 27.2313 7.49222 27.1314 7.65701C26.9774 7.89239 26.9196 8.17598 26.9693 8.4513L27.1557 9.73805C27.0322 9.66944 26.8925 9.63384 26.7506 9.6348H19.5317C19.2727 9.63639 19.0197 9.71082 18.8025 9.84925C18.5926 9.9781 18.424 10.1626 18.3164 10.3814L17.7574 9.91279C17.5374 9.71321 17.2469 9.60503 16.9472 9.61097H5.62067C5.36075 9.61561 5.1066 9.6868 4.88341 9.81748C4.57806 9.99269 4.35429 10.2776 4.25954 10.6118L0.662273 22.407C0.595059 22.6013 0.588447 22.8109 0.643284 23.009C0.698121 23.207 0.811922 23.3846 0.970151 23.519C1.01138 23.5532 1.05467 23.5851 1.09979 23.6143C1.09979 23.6143 1.02686 23.5666 0.986346 23.5269L5.89616 27.6811C6.10385 27.8685 6.3754 27.9733 6.65769 27.9749H18.0734C18.3341 27.9683 18.5884 27.8943 18.8107 27.7605C18.9364 27.6931 19.0488 27.6044 19.1428 27.4983L19.1834 27.4427L19.2482 27.3633L19.2968 27.2759L19.8315 27.7287C20.0362 27.9087 20.3019 28.0078 20.5769 28.0067H32.0168C32.2773 27.9982 32.5311 27.9244 32.7541 27.7923C32.877 27.7208 32.9888 27.6325 33.0863 27.5301L33.1268 27.4745L33.1916 27.3951C33.2261 27.3449 33.256 27.2917 33.2807 27.2362C33.3072 27.1881 33.3289 27.1376 33.3456 27.0853L36.6269 16.3148V16.2195C36.6309 16.1825 36.6309 16.1452 36.6269 16.1083V16.0368C36.6308 16.0131 36.6308 15.989 36.6269 15.9653C36.6305 15.9151 36.6305 15.8646 36.6269 15.8143H37.6801C37.7717 15.8226 37.8639 15.8226 37.9556 15.8143H38.0285C38.0878 15.797 38.1449 15.773 38.1987 15.7429H38.2797L38.4255 15.6317L38.4903 15.584L38.6037 15.441V15.3934L38.6848 15.2584C38.6802 15.2321 38.6802 15.2052 38.6848 15.179C38.6805 15.1661 38.6805 15.1521 38.6848 15.1392C38.702 15.0927 38.7155 15.0448 38.7253 14.9962C38.7215 14.9806 38.7215 14.9642 38.7253 14.9486C38.7213 14.9249 38.7213 14.9008 38.7253 14.8771C38.7253 14.8771 38.8874 14.5673 38.8874 14.5515Z" fill="black"/>
<path d="M17.2794 10.5165C17.3224 10.5546 17.3524 10.6048 17.3655 10.6602C17.3785 10.7155 17.3739 10.7735 17.3523 10.8263L13.7632 22.6135C13.718 22.7422 13.6255 22.8498 13.5039 22.9154C13.4049 22.9803 13.2904 23.0186 13.1717 23.0266H1.76415C1.66672 23.022 1.57443 22.9824 1.50488 22.9154C1.46351 22.8778 1.43447 22.8291 1.42148 22.7754C1.40849 22.7216 1.41215 22.6653 1.43197 22.6135L5.02924 10.8263C5.07068 10.6959 5.16024 10.5855 5.28039 10.5165C5.38098 10.4563 5.49496 10.4208 5.61257 10.4132H17.0201C17.1168 10.4141 17.2095 10.4511 17.2794 10.5165ZM11.3244 20.2386L13.4715 13.2012H7.45984L5.32089 20.2386H11.3244ZM28.1684 10.6356C28.2073 10.68 28.256 10.7151 28.3107 10.7385C28.3654 10.7619 28.4247 10.7729 28.4844 10.7707H29.9671C30.0235 10.7712 30.0791 10.7576 30.1288 10.7312C30.1784 10.7048 30.2203 10.6664 30.2506 10.6197C30.2769 10.5833 30.2956 10.542 30.3053 10.4983C30.315 10.4546 30.3157 10.4095 30.3073 10.3656L30.0157 8.26865C29.9879 8.1716 29.938 8.08199 29.8699 8.00653C29.8309 7.96219 29.7823 7.92702 29.7276 7.90365C29.6729 7.88027 29.6135 7.86929 29.5539 7.8715H28.0712C28.0147 7.87097 27.9591 7.88454 27.9095 7.91095C27.8599 7.93735 27.8179 7.97572 27.7876 8.02242C27.7309 8.13362 27.7066 8.20511 27.7309 8.26865L28.0307 10.3656C28.0461 10.4677 28.0943 10.5623 28.1684 10.6356ZM32.8757 8.25276C32.8479 8.15571 32.798 8.06609 32.7298 7.99065C32.6925 7.94647 32.6453 7.91131 32.5919 7.88789C32.5386 7.86448 32.4804 7.85343 32.422 7.85562H30.9312C30.8757 7.85407 30.8207 7.86728 30.7722 7.89384C30.7237 7.92041 30.6835 7.95936 30.6557 8.00653C30.6018 8.077 30.5785 8.16551 30.5909 8.25276L30.8907 10.3497C30.9095 10.4507 30.9572 10.5444 31.0284 10.6197C31.068 10.6632 31.1168 10.6978 31.1714 10.7211C31.2259 10.7444 31.2849 10.7559 31.3444 10.7548H32.8352C32.8906 10.7555 32.9451 10.7419 32.9934 10.7154C33.0418 10.689 33.0822 10.6505 33.1106 10.6039C33.1388 10.5683 33.1585 10.527 33.1683 10.4831C33.1782 10.4391 33.1778 10.3935 33.1673 10.3497L32.8757 8.25276ZM26.864 11.4299L26.7181 10.3973H19.5317C19.4189 10.4034 19.3097 10.4391 19.2157 10.5006C19.1561 10.5325 19.1041 10.5767 19.0636 10.6302C19.023 10.6837 18.9948 10.7452 18.9808 10.8104L18.3813 12.7802C18.3573 12.8294 18.3491 12.8847 18.3578 12.9385C18.3665 12.9924 18.3916 13.0424 18.4299 13.082C18.4982 13.145 18.5874 13.1817 18.681 13.1853H27.415L25.2679 20.2227H16.5583C16.446 20.2252 16.3366 20.2582 16.2424 20.318C16.1278 20.3894 16.0441 20.4997 16.0074 20.6278L15.3997 22.5976C15.3799 22.6482 15.3747 22.7031 15.3847 22.7564C15.3947 22.8097 15.4195 22.8591 15.4564 22.8994C15.5226 22.9666 15.6125 23.0064 15.7076 23.0106H27.1476C27.2659 23.0007 27.3799 22.9625 27.4797 22.8994C27.5994 22.8336 27.6891 22.7258 27.7309 22.5976L31.0203 11.8271H27.3177C27.259 11.8282 27.2006 11.8175 27.1463 11.7957C27.0919 11.7738 27.0428 11.7412 27.0018 11.7C26.9348 11.6279 26.8874 11.5405 26.864 11.4458V11.4299Z" fill="white"/>
</g>
<defs>
<clipPath id="clip0_302_1256">
<rect width="38.2838" height="20.8821" fill="white" transform="translate(0.606506 7.12463)"/>
</clipPath>
</defs>
</svg>
