<svg width="37" height="35" viewBox="0 0 37 35" fill="none" xmlns="http://www.w3.org/2000/svg">
<g clip-path="url(#clip0_302_1252)">
<path d="M8.81748 10.605C7.40395 10.605 6.04833 11.1665 5.04882 12.166L1.78683 15.428C0.787319 16.4275 0.2258 17.7831 0.2258 19.1967C0.2258 22.1402 2.61199 24.5264 5.55551 24.5264C6.96904 24.5264 8.32466 23.9648 9.32417 22.9653L11.5805 20.709C11.5805 20.7089 11.5805 20.709 11.5805 20.709L18.1547 14.1348C18.6321 13.6574 19.2795 13.3893 19.9546 13.3893C21.0848 13.3893 22.043 14.1259 22.3752 15.1452L24.45 13.0704C23.5035 11.588 21.8439 10.605 19.9546 10.605C18.5411 10.605 17.1854 11.1665 16.1859 12.166L7.35541 20.9966C6.87804 21.4739 6.23061 21.7421 5.55551 21.7421C4.1497 21.7421 3.01008 20.6025 3.01008 19.1967C3.01008 18.5216 3.27825 17.8741 3.75561 17.3968L7.01758 14.1348C7.49495 13.6574 8.14238 13.3893 8.81748 13.3893C9.94775 13.3893 10.9059 14.1259 11.2381 15.1453L13.313 13.0705C12.3665 11.588 10.7068 10.605 8.81748 10.605Z" fill="#394149"/>
<path d="M18.4925 20.9966C18.0152 21.4739 17.3677 21.7421 16.6926 21.7421C15.5625 21.7421 14.6044 21.0057 14.2721 19.9865L12.1974 22.0612C13.1439 23.5435 14.8035 24.5264 16.6926 24.5264C18.1062 24.5264 19.4618 23.9648 20.4613 22.9653L29.2918 14.1348C29.7692 13.6574 30.4166 13.3893 31.0917 13.3893C32.4975 13.3893 33.6371 14.5289 33.6371 15.9347C33.6371 16.6098 33.369 17.2572 32.8916 17.7346L29.6296 20.9966C29.1523 21.4739 28.5048 21.7421 27.8297 21.7421C26.6995 21.7421 25.7414 21.0055 25.4091 19.9862L23.3344 22.061C24.2809 23.5434 25.9405 24.5264 27.8297 24.5264C29.2433 24.5264 30.5989 23.9648 31.5984 22.9653L34.8604 19.7034C35.8599 18.7038 36.4214 17.3482 36.4214 15.9347C36.4214 12.9912 34.0352 10.605 31.0917 10.605C29.6782 10.605 28.3225 11.1665 27.323 12.166L18.4925 20.9966Z" fill="#394149"/>
</g>
<defs>
<clipPath id="clip0_302_1252">
<rect width="36.1956" height="13.9214" fill="white" transform="translate(0.2258 10.605)"/>
</clipPath>
</defs>
</svg>
