<svg width="34" height="35" viewBox="0 0 34 35" fill="none" xmlns="http://www.w3.org/2000/svg">
<g clip-path="url(#clip0_302_1225)">
<path fill-rule="evenodd" clip-rule="evenodd" d="M10.0459 10.6847L3.09509 17.5656C4.48538 18.942 6.07357 20.1019 7.80514 21.0094C8.28376 22.2662 9.03398 23.4449 10.0558 24.4564C13.9001 28.262 20.1329 28.262 23.9772 24.4564C24.999 23.4449 25.7492 22.2662 26.2278 21.0093C27.9594 20.1019 29.5476 18.942 30.9379 17.5656L23.9927 10.6903C23.9875 10.6852 23.9824 10.68 23.9772 10.6749C20.1329 6.86927 13.9001 6.86927 10.0558 10.6749C10.0525 10.6782 10.0492 10.6815 10.0459 10.6847ZM23.3121 22.2508C21.2865 22.9275 19.1602 23.2741 17.0165 23.2741C14.8728 23.2741 12.7465 22.9275 10.721 22.2508C10.9404 22.5391 11.1827 22.8157 11.4479 23.0782C14.5234 26.1228 19.5096 26.1228 22.585 23.0782C22.8502 22.8157 23.0926 22.5391 23.3121 22.2508ZM11.5907 11.9152C12.113 12.2568 12.6683 12.5491 13.2494 12.7874C14.4437 13.2771 15.7237 13.5292 17.0165 13.5292C18.3092 13.5292 19.5893 13.2771 20.7836 12.7874C21.3647 12.5491 21.92 12.2568 22.4423 11.9152C19.4053 9.05448 14.6277 9.05449 11.5907 11.9152Z" fill="#3B4158"/>
</g>
<defs>
<clipPath id="clip0_302_1225">
<rect width="27.8428" height="19.4899" fill="white" transform="translate(3.09509 7.82068)"/>
</clipPath>
</defs>
</svg>
