<svg width="34" height="35" viewBox="0 0 34 35" fill="none" xmlns="http://www.w3.org/2000/svg">
<g clip-path="url(#clip0_302_1248)">
<path d="M30.0806 9.10415C30.0806 9.42852 30.3468 9.69146 30.6752 9.69146H31.2697C31.5981 9.69146 31.8643 9.42852 31.8643 9.10415C31.8643 8.77979 31.5981 8.51685 31.2697 8.51685H30.6752C30.3468 8.51685 30.0806 8.77979 30.0806 9.10415Z" fill="#212326"/>
<path d="M12.8384 27.3107H15.7267L14.8858 26.4801C14.6628 26.2599 14.3604 26.1361 14.045 26.1361H12.8384C8.24126 26.1361 4.51456 22.4549 4.51456 17.9138C4.51456 13.3727 8.24126 9.69147 12.8384 9.69146H22.3513C26.9485 9.69146 30.6752 13.3727 30.6752 17.9138C30.6752 22.4549 26.9485 26.1361 22.3513 26.1361H18.7927C18.3197 26.1361 17.866 25.9505 17.5315 25.6201L16.5464 24.647C15.9889 24.0963 15.2327 23.7869 14.4443 23.7869H12.8384C9.55471 23.7869 6.8928 21.1574 6.8928 17.9138C6.8928 14.6701 9.55471 12.0407 12.8384 12.0407H22.3513C25.635 12.0407 28.2969 14.6701 28.2969 17.9138C28.2969 21.1574 25.635 23.7869 22.3513 23.7869H20.0664C19.5933 23.7869 19.1396 23.6012 18.8051 23.2708L17.82 22.2977C17.2625 21.747 16.5063 21.4376 15.7179 21.4376H12.8384C10.8682 21.4376 9.27103 19.8599 9.27103 17.9138C9.27103 15.9676 10.8682 14.3899 12.8384 14.3899H22.3513C24.3215 14.3899 25.9187 15.9676 25.9187 17.9138C25.9187 19.8362 24.3602 21.3991 22.4233 21.4369L22.4229 21.4376H21.5528C21.0797 21.4376 20.626 21.252 20.2915 20.9216L19.3064 19.9485C18.849 19.4966 18.2578 19.2072 17.6247 19.1179L17.5949 19.0884H12.8384C12.1817 19.0884 11.6493 18.5625 11.6493 17.9138C11.6493 17.2651 12.1817 16.7392 12.8384 16.7392H22.3513C23.0081 16.7392 23.5405 17.2651 23.5405 17.9138C23.5405 18.5625 23.0081 19.0884 22.3513 19.0884H19.9731L20.814 19.919C21.0369 20.1393 21.3394 20.263 21.6548 20.263H22.3513C23.6648 20.263 24.7296 19.2112 24.7296 17.9138C24.7296 16.6163 23.6648 15.5645 22.3513 15.5645H12.8384C11.5249 15.5645 10.4602 16.6163 10.4602 17.9138C10.4602 19.2112 11.5249 20.263 12.8384 20.263H17.2043C17.6774 20.263 18.1311 20.4487 18.4656 20.7791L19.4507 21.7521C20.0082 22.3029 20.7643 22.6123 21.5528 22.6123H22.6486V22.6032C25.1371 22.4517 27.1078 20.41 27.1078 17.9138C27.1078 15.3189 24.9782 13.2153 22.3513 13.2153H12.8384C10.2115 13.2153 8.08191 15.3189 8.08191 17.9138C8.08191 20.5087 10.2115 22.6123 12.8384 22.6123H15.7179C16.191 22.6123 16.6447 22.7979 16.9792 23.1283L17.9643 24.1014C18.5218 24.6521 19.2779 24.9615 20.0664 24.9615H22.3513C26.2917 24.9615 29.4861 21.8061 29.4861 17.9138C29.4861 14.0214 26.2917 10.8661 22.3513 10.8661H12.8384C8.89798 10.8661 5.70368 14.0214 5.70368 17.9138C5.70368 21.8061 8.89798 24.9615 12.8384 24.9615H14.4443C14.9173 24.9615 15.371 25.1471 15.7055 25.4775L16.6907 26.4506C17.2482 27.0013 18.0043 27.3107 18.7927 27.3107H22.3513C27.6052 27.3107 31.8643 23.1036 31.8643 17.9138C31.8643 12.724 27.6052 8.51685 22.3513 8.51685L12.8384 8.51685C7.58453 8.51685 3.32544 12.724 3.32544 17.9138C3.32544 23.1036 7.58453 27.3107 12.8384 27.3107Z" fill="#212326"/>
</g>
<defs>
<clipPath id="clip0_302_1248">
<rect width="28.5388" height="18.7939" fill="white" transform="translate(3.32544 8.51685)"/>
</clipPath>
</defs>
</svg>
