<svg width="39" height="35" viewBox="0 0 39 35" fill="none" xmlns="http://www.w3.org/2000/svg">
<g clip-path="url(#clip0_302_1228)">
<path d="M38.5802 14.5515C38.5842 14.5224 38.5842 14.4931 38.5802 14.4641C38.584 14.4404 38.584 14.4163 38.5802 14.3926L38.2966 12.3513C38.2557 12.107 38.1463 11.8788 37.9807 11.692L37.932 11.6364L37.8429 11.549L32.9331 7.40284L33.0709 7.53788C32.9582 7.4057 32.8167 7.29998 32.6569 7.2285C32.4971 7.15702 32.3229 7.1216 32.1473 7.12484H30.6565C30.4141 7.12013 30.1772 7.19569 29.984 7.3393C29.7812 7.19656 29.5369 7.12138 29.2872 7.12484H27.7965C27.601 7.12173 27.4081 7.1693 27.2374 7.26275C27.0666 7.3562 26.9241 7.49222 26.8243 7.65701C26.6703 7.89239 26.6124 8.17598 26.6622 8.4513L26.8486 9.73805C26.7251 9.66944 26.5854 9.63384 26.4435 9.6348H19.2246C18.9656 9.63639 18.7126 9.71082 18.4954 9.84925C18.2854 9.9781 18.1169 10.1626 18.0093 10.3814L17.4503 9.91279C17.2302 9.71321 16.9398 9.60503 16.6401 9.61097H5.31354C5.05362 9.61561 4.79947 9.6868 4.57628 9.81748C4.27094 9.99269 4.04716 10.2776 3.95241 10.6118L0.355144 22.407C0.28793 22.6013 0.281318 22.8109 0.336155 23.009C0.390992 23.207 0.504794 23.3846 0.663022 23.519C0.704252 23.5532 0.747543 23.5851 0.792657 23.6143C0.792657 23.6143 0.719727 23.5666 0.679217 23.5269L5.58903 27.6811C5.79672 27.8685 6.06827 27.9733 6.35056 27.9749H17.7663C18.027 27.9683 18.2813 27.8943 18.5035 27.7605C18.6292 27.6931 18.7417 27.6044 18.8357 27.4983L18.8762 27.4427L18.941 27.3633L18.9896 27.2759L19.5244 27.7287C19.7291 27.9087 19.9948 28.0078 20.2698 28.0067H31.7097C31.9701 27.9982 32.224 27.9244 32.447 27.7923C32.5699 27.7208 32.6817 27.6325 32.7792 27.5301L32.8197 27.4745L32.8845 27.3951C32.9189 27.3449 32.9488 27.2917 32.9736 27.2362C33.0001 27.1881 33.0218 27.1376 33.0384 27.0853L36.3197 16.3148V16.2195C36.3238 16.1825 36.3238 16.1452 36.3197 16.1083V16.0368C36.3237 16.0131 36.3237 15.989 36.3197 15.9653C36.3234 15.9151 36.3234 15.8646 36.3197 15.8143H37.373C37.4646 15.8226 37.5568 15.8226 37.6484 15.8143H37.7214C37.7807 15.797 37.8378 15.773 37.8915 15.7429H37.9726L38.1184 15.6317L38.1832 15.584L38.2966 15.441V15.3934L38.3776 15.2584C38.3731 15.2321 38.3731 15.2052 38.3776 15.179C38.3733 15.1661 38.3733 15.1521 38.3776 15.1392C38.3949 15.0927 38.4084 15.0448 38.4182 14.9962C38.4144 14.9806 38.4144 14.9642 38.4182 14.9486C38.4142 14.9249 38.4142 14.9008 38.4182 14.8771C38.4182 14.8771 38.5802 14.5673 38.5802 14.5515Z" fill="black"/>
<path d="M16.9723 10.5165C17.0153 10.5546 17.0453 10.6048 17.0584 10.6602C17.0714 10.7155 17.0668 10.7735 17.0452 10.8263L13.4561 22.6135C13.4109 22.7422 13.3184 22.8498 13.1968 22.9154C13.0978 22.9803 12.9833 23.0186 12.8646 23.0266H1.45705C1.35963 23.022 1.26733 22.9824 1.19778 22.9154C1.15641 22.8778 1.12737 22.8291 1.11438 22.7754C1.10139 22.7216 1.10505 22.6653 1.12487 22.6135L4.72214 10.8263C4.76358 10.6959 4.85314 10.5855 4.97329 10.5165C5.07388 10.4563 5.18787 10.4208 5.30548 10.4132H16.713C16.8097 10.4141 16.9024 10.4511 16.9723 10.5165ZM11.0173 20.2386L13.1644 13.2012H7.15274L5.0138 20.2386H11.0173ZM27.8613 10.6356C27.9002 10.68 27.9489 10.7151 28.0036 10.7385C28.0583 10.7619 28.1177 10.7729 28.1773 10.7707H29.66C29.7164 10.7712 29.772 10.7576 29.8217 10.7312C29.8713 10.7048 29.9132 10.6664 29.9435 10.6197C29.9698 10.5833 29.9885 10.542 29.9982 10.4983C30.0079 10.4546 30.0086 10.4095 30.0002 10.3656L29.7086 8.26865C29.6808 8.1716 29.6309 8.08199 29.5628 8.00653C29.5238 7.96219 29.4752 7.92702 29.4205 7.90365C29.3658 7.88027 29.3064 7.86929 29.2468 7.8715H27.7641C27.7076 7.87097 27.652 7.88454 27.6024 7.91095C27.5528 7.93735 27.5108 7.97572 27.4805 8.02242C27.4238 8.13362 27.3995 8.20511 27.4238 8.26865L27.7236 10.3656C27.739 10.4677 27.7872 10.5623 27.8613 10.6356ZM32.5686 8.25276C32.5408 8.15571 32.4909 8.06609 32.4227 7.99065C32.3854 7.94647 32.3382 7.91131 32.2848 7.88789C32.2315 7.86448 32.1733 7.85343 32.1149 7.85562H30.6241C30.5686 7.85407 30.5136 7.86728 30.4651 7.89384C30.4166 7.92041 30.3764 7.95936 30.3486 8.00653C30.2947 8.077 30.2714 8.16551 30.2838 8.25276L30.5836 10.3497C30.6024 10.4507 30.6501 10.5444 30.7213 10.6197C30.7609 10.6632 30.8097 10.6978 30.8643 10.7211C30.9188 10.7444 30.9778 10.7559 31.0373 10.7548H32.5281C32.5835 10.7555 32.638 10.7419 32.6863 10.7154C32.7347 10.689 32.7751 10.6505 32.8035 10.6039C32.8317 10.5683 32.8514 10.527 32.8612 10.4831C32.8711 10.4391 32.8707 10.3935 32.8602 10.3497L32.5686 8.25276ZM26.5569 11.4299L26.411 10.3973H19.2246C19.1118 10.4034 19.0026 10.4391 18.9086 10.5006C18.849 10.5325 18.797 10.5767 18.7565 10.6302C18.7159 10.6837 18.6877 10.7452 18.6737 10.8104L18.0742 12.7802C18.0502 12.8294 18.042 12.8847 18.0507 12.9385C18.0594 12.9924 18.0845 13.0424 18.1228 13.082C18.1911 13.145 18.2803 13.1817 18.3739 13.1853H27.1079L24.9608 20.2227H16.2512C16.1389 20.2252 16.0295 20.2582 15.9353 20.318C15.8207 20.3894 15.737 20.4997 15.7003 20.6278L15.0926 22.5976C15.0728 22.6482 15.0676 22.7031 15.0776 22.7564C15.0876 22.8097 15.1124 22.8591 15.1493 22.8994C15.2155 22.9666 15.3054 23.0064 15.4005 23.0106H26.8405C26.9588 23.0007 27.0728 22.9625 27.1726 22.8994C27.2923 22.8336 27.382 22.7258 27.4238 22.5976L30.7132 11.8271H27.0106C26.9519 11.8282 26.8935 11.8175 26.8392 11.7957C26.7848 11.7738 26.7357 11.7412 26.6947 11.7C26.6277 11.6279 26.5803 11.5405 26.5569 11.4458V11.4299Z" fill="white"/>
</g>
<defs>
<clipPath id="clip0_302_1228">
<rect width="38.2838" height="20.8821" fill="white" transform="translate(0.299377 7.12463)"/>
</clipPath>
</defs>
</svg>
