<svg width="34" height="35" viewBox="0 0 34 35" fill="none" xmlns="http://www.w3.org/2000/svg">
<g clip-path="url(#clip0_302_1222)">
<path fill-rule="evenodd" clip-rule="evenodd" d="M9.97901 3.75098C13.8233 3.75098 16.9397 6.86738 16.9397 10.7117V3.75098H23.9004C27.7446 3.75098 30.8611 6.86738 30.8611 10.7117C30.8611 14.5559 27.7446 17.6724 23.9004 17.6724C27.7446 17.6724 30.8611 20.7888 30.8611 24.6331C30.8611 26.5419 30.0927 28.2713 28.8484 29.5288L28.8224 29.555L28.7993 29.578C27.5415 30.8241 25.8108 31.5938 23.9004 31.5938C22.003 31.5938 20.2829 30.8346 19.0272 29.6033C19.0109 29.5873 18.9946 29.5712 18.9784 29.555C18.9632 29.5398 18.948 29.5245 18.9329 29.5091C17.7001 28.2532 16.9397 26.5319 16.9397 24.6331C16.9397 28.4773 13.8233 31.5938 9.97901 31.5938C6.13472 31.5938 3.01831 28.4773 3.01831 24.6331V17.6724H9.97901C6.13472 17.6724 3.01831 14.5559 3.01831 10.7117C3.01831 6.86738 6.13472 3.75098 9.97901 3.75098ZM15.5476 10.7117C15.5476 13.7871 13.0544 16.2802 9.97901 16.2802V5.14312C13.0544 5.14312 15.5476 7.63624 15.5476 10.7117ZM29.469 24.6331C29.469 21.5576 26.9758 19.0645 23.9004 19.0645C20.825 19.0645 18.3318 21.5576 18.3318 24.6331H29.469ZM4.41045 19.0645V24.6331C4.41045 27.7085 6.90358 30.2016 9.97901 30.2016C13.0544 30.2016 15.5476 27.7085 15.5476 24.6331V19.0645H4.41045ZM18.3318 16.2802V5.14312H23.9004C26.9758 5.14312 29.469 7.63624 29.469 10.7117C29.469 13.7871 26.9758 16.2802 23.9004 16.2802H18.3318Z" fill="#263238"/>
</g>
<defs>
<clipPath id="clip0_302_1222">
<rect width="27.8428" height="27.8428" fill="white" transform="translate(3.01831 3.75098)"/>
</clipPath>
</defs>
</svg>
