<svg width="34" height="35" viewBox="0 0 34 35" fill="none" xmlns="http://www.w3.org/2000/svg">
<g clip-path="url(#clip0_302_1232)">
<path d="M31.7852 10.302C31.7852 10.3255 31.7852 10.355 31.779 10.3726C31.7484 10.6021 31.7484 10.8316 31.7667 11.0669C31.779 11.1258 31.7913 11.1846 31.8403 11.2317C31.92 11.32 32.0426 11.3023 32.0917 11.1964C32.1162 11.1434 32.1162 11.0905 32.1039 11.0375C32.0426 10.8139 32.0304 10.5786 32.0243 10.3491C32.0243 10.3373 32.0243 10.3196 32.0243 10.302C32.0917 10.2961 32.153 10.2902 32.2082 10.2902C32.2511 10.2843 32.2879 10.2785 32.3186 10.2608C32.4105 10.2137 32.4105 10.1137 32.3124 10.0666C32.2756 10.049 32.2266 10.0431 32.1837 10.0431C32.0304 10.049 31.8771 10.049 31.7238 10.049C31.6687 10.049 31.6135 10.0549 31.5583 10.0607C31.5276 10.0666 31.4909 10.0666 31.4664 10.0843C31.4234 10.1019 31.3989 10.1314 31.3989 10.1725C31.405 10.2137 31.4234 10.2373 31.4664 10.2549C31.4909 10.2726 31.5215 10.2785 31.5522 10.2785C31.6257 10.2843 31.7055 10.2961 31.7852 10.302ZM33.4711 10.5727C33.4711 10.5786 33.4772 10.5844 33.4772 10.5844C33.5018 10.7433 33.5263 10.8963 33.5447 11.0493C33.5508 11.1022 33.557 11.1493 33.5937 11.1905C33.6734 11.2905 33.7961 11.2788 33.8512 11.1729C33.8758 11.1199 33.8819 11.0669 33.8696 11.0081C33.8328 10.8316 33.8144 10.655 33.7777 10.4844C33.7531 10.3785 33.7225 10.2785 33.6918 10.1843C33.6734 10.1255 33.6305 10.0843 33.557 10.0784C33.4834 10.0666 33.4282 10.1019 33.3975 10.1549C33.3608 10.202 33.3301 10.249 33.3056 10.302C33.2627 10.3961 33.2259 10.4903 33.1769 10.5786C33.1707 10.6021 33.1646 10.6197 33.1523 10.6374C33.1462 10.6256 33.1401 10.6197 33.1401 10.6197C33.0603 10.4726 32.9868 10.3255 32.9071 10.1843C32.8948 10.1725 32.8887 10.1608 32.8826 10.149C32.8458 10.0961 32.8029 10.0666 32.7354 10.0666C32.6741 10.0725 32.625 10.1078 32.5944 10.1608C32.5821 10.1843 32.5821 10.202 32.576 10.2255C32.5515 10.4138 32.5208 10.6021 32.4963 10.7904C32.484 10.8963 32.4779 11.0022 32.4779 11.1081C32.4718 11.1317 32.4779 11.1611 32.4902 11.1846C32.5025 11.2317 32.5392 11.2611 32.5883 11.267C32.6496 11.2729 32.6925 11.2552 32.7109 11.2082C32.7293 11.1729 32.7354 11.1434 32.7416 11.114C32.7661 11.0081 32.7845 10.9081 32.8029 10.808C32.8151 10.7492 32.8212 10.7021 32.8397 10.6374C32.8519 10.6609 32.8641 10.6786 32.8764 10.6962C32.9316 10.7669 32.9868 10.8375 33.0542 10.8963C33.1217 10.9434 33.1769 10.9375 33.232 10.8845C33.2443 10.8728 33.2504 10.8669 33.2627 10.8551C33.3179 10.7727 33.3853 10.6904 33.4405 10.608C33.4527 10.5962 33.4589 10.5844 33.4711 10.5727Z" fill="#3A3B7B"/>
<path d="M19.3449 10.4175C19.3023 10.5294 19.2941 10.6099 19.3138 10.6769C19.3355 10.768 19.392 10.7978 19.4685 10.7746C20.1886 10.6037 21.7677 11.0888 22.3523 11.224C22.4902 11.2524 22.6024 11.0816 22.5083 10.9284C22.371 10.7801 20.7926 10.1451 20.1903 10.1105C19.9543 10.0976 19.5323 10.0395 19.3449 10.4175Z" fill="#3A3B7B"/>
<path d="M25.5161 8.36191C25.5929 8.40442 25.6358 8.44498 25.657 8.49029C25.6885 8.54973 25.6719 8.59086 25.6189 8.61184C25.1429 8.83481 24.5094 9.79475 24.2538 10.1258C24.1918 10.202 24.0488 10.1577 24.0272 10.0325C24.0317 9.89087 24.5931 8.84912 24.9065 8.56538C25.0297 8.4546 25.2331 8.23724 25.5161 8.36191Z" fill="#3A3B7B"/>
<path d="M21.7254 7.8894C21.8176 7.82271 21.9134 7.79933 21.9623 7.84268C22.6805 8.43218 23.0614 9.3657 23.2972 10.2203C23.3061 10.2402 23.3067 10.2688 23.2996 10.2986C23.2966 10.3241 23.2772 10.351 23.2464 10.3718C23.2135 10.3948 23.1852 10.4018 23.1719 10.382C22.8571 9.97109 21.0593 8.37232 21.7254 7.8894Z" fill="#3A3B7B"/>
<path d="M6.51689 18.1098C6.68901 17.9868 6.87615 17.8844 7.07417 17.8049C7.28135 17.7481 7.50218 17.7575 7.70328 17.8318C7.90434 17.9061 8.07479 18.0412 8.18873 18.2168C8.29066 18.3918 8.33053 18.594 8.30239 18.7927C8.27426 18.9914 8.17962 19.176 8.03268 19.3186C7.91878 19.4342 7.78946 19.5349 7.64818 19.6181C7.01846 20.0086 6.38313 20.3776 5.74783 20.7681C5.61783 20.8658 5.47993 20.9535 5.33543 21.0302C5.11565 21.1354 4.86447 21.1636 4.62533 21.1098C4.38619 21.0562 4.17413 20.9239 4.02581 20.736C3.91494 20.603 3.82137 20.4575 3.74717 20.3028C3.1453 19.0886 2.52115 17.8798 1.94157 16.6442C1.67407 16.1094 1.45673 15.4943 1.24496 14.9006C1.15334 14.7281 1.13545 14.5281 1.19509 14.3431C1.25474 14.1581 1.38722 14.0028 1.56436 13.9101C1.74149 13.8175 1.9493 13.7948 2.14359 13.8469C2.33788 13.899 2.50332 14.0218 2.60473 14.1892C2.91644 14.5868 3.19236 15.0091 3.42952 15.4515C4.03138 16.5212 4.60539 17.591 5.18497 18.6286C5.21872 18.686 5.25593 18.7413 5.29642 18.7944C5.73265 18.6184 6.14295 18.3882 6.51689 18.1098Z" fill="#3A3B7B"/>
<path d="M12.7398 17.7367C11.3634 19.2824 9.05619 18.892 7.89704 16.9023C7.07224 15.4902 6.92736 13.1582 8.72184 11.6873C9.10503 11.3794 9.56323 11.1696 10.0537 11.0775C10.6551 10.9948 11.2684 11.0966 11.8059 11.3685C12.3433 11.6403 12.7775 12.0683 13.0464 12.5912C14.0272 14.3028 13.8879 16.4851 12.7398 17.7367ZM12.1826 14.1317C12.0363 13.7111 11.743 13.352 11.3522 13.1154C11.1311 12.9641 10.8624 12.8906 10.5914 12.9072C10.3204 12.9237 10.0636 13.0294 9.86426 13.2063C9.06736 13.8856 8.90014 15.4956 9.47971 16.453C9.5536 16.6091 9.66208 16.7479 9.79766 16.8595C9.93324 16.9712 10.0926 17.0531 10.2646 17.0994C10.4366 17.1458 10.617 17.1555 10.7934 17.128C10.9697 17.1003 11.1376 17.0361 11.2854 16.9397C11.7173 16.6183 12.0343 16.1756 12.192 15.6734C12.3499 15.1711 12.3407 14.6341 12.1659 14.137L12.1826 14.1317Z" fill="#3A3B7B"/>
<path d="M18.3572 14.8055C18.2163 14.8346 18.0707 14.8364 17.9291 14.8106C17.7875 14.7849 17.6526 14.7323 17.5325 14.6558C17.4274 14.5981 17.3369 14.5187 17.2675 14.4235C17.1982 14.3282 17.1518 14.2194 17.1315 14.1048C17.1113 13.9902 17.1177 13.8727 17.1504 13.7609C17.1831 13.649 17.2413 13.5454 17.3207 13.4577C17.4591 13.2813 17.6554 13.155 17.878 13.0993C18.4591 12.9374 19.0573 12.8388 19.6613 12.8051C19.794 12.7903 19.9285 12.8011 20.0568 12.8368C20.1851 12.8726 20.3047 12.9326 20.4085 13.0133C20.5123 13.094 20.5983 13.1939 20.6614 13.3069C20.7245 13.4199 20.7634 13.5439 20.7759 13.6716C20.95 14.2988 20.9691 14.9563 20.8316 15.5918C20.3301 17.6457 18.6025 18.3517 16.6631 17.6938C16.1187 17.5179 15.6414 17.1902 15.2922 16.7525C14.8264 16.2253 14.4962 15.6006 14.3281 14.9286C14.1919 14.3301 14.2068 13.7091 14.3716 13.1173C14.5364 12.5256 14.8463 11.9802 15.2755 11.5268C15.6827 11.034 16.2113 10.6462 16.8136 10.3982C17.1942 10.1969 17.6395 10.1396 18.0619 10.2378C18.1577 10.2632 18.2447 10.3128 18.3138 10.3814C18.3829 10.45 18.4317 10.5351 18.455 10.6278C18.4783 10.7206 18.4753 10.8177 18.4464 10.909C18.4174 11.0003 18.3636 11.0825 18.2904 11.147C18.1512 11.2679 18 11.3754 17.839 11.468C17.3435 11.7708 16.9124 12.161 16.5684 12.6179C16.3429 12.9136 16.1876 13.2531 16.1134 13.6126C16.0393 13.972 16.0481 14.3427 16.1393 14.6986C16.2657 15.1838 16.5461 15.6193 16.9417 15.9448C18.1678 17.0146 19.7616 15.9822 19.483 14.5221C19.0762 14.6183 18.7195 14.72 18.3572 14.8055Z" fill="#3A3B7B"/>
<path d="M25.8473 17.8223C24.0361 18.892 21.9742 17.8223 21.5227 15.5759C21.194 13.9712 21.8181 11.7248 24.0027 10.869C24.4675 10.6908 24.9716 10.6283 25.4683 10.6871C26.0651 10.792 26.6126 11.074 27.0335 11.4933C27.4544 11.9127 27.7276 12.4482 27.8145 13.0245C28.1823 14.934 27.3464 16.9719 25.8473 17.8223ZM26.4771 14.2226C26.4765 13.7783 26.3127 13.3483 26.0145 13.0085C25.8551 12.7983 25.6246 12.6476 25.3624 12.5823C25.1002 12.5169 24.8225 12.5409 24.5767 12.6501C23.5959 13.0566 22.9048 14.5328 23.1556 15.6187C23.1748 15.789 23.2324 15.9534 23.3247 16.1001C23.4169 16.2469 23.5414 16.3726 23.6895 16.4683C23.8375 16.5641 24.0056 16.6277 24.182 16.6546C24.3584 16.6815 24.5387 16.6711 24.7104 16.6242C25.2289 16.4504 25.6778 16.1255 25.9945 15.6949C26.3112 15.2644 26.4799 14.7496 26.4771 14.2226Z" fill="#3A3B7B"/>
<path d="M29.646 18.2716C29.6187 18.4673 29.5115 18.6446 29.3479 18.7645C29.1843 18.8843 28.9779 18.937 28.7739 18.9107C28.5699 18.8845 28.3852 18.7815 28.2603 18.6245C28.1354 18.4676 28.0806 18.2694 28.108 18.0736C28.1353 17.8779 28.2426 17.7006 28.4061 17.5807C28.5697 17.4608 28.7761 17.4082 28.9801 17.4345C29.1841 17.4607 29.3688 17.5636 29.4937 17.7206C29.6186 17.8776 29.6734 18.0758 29.646 18.2716ZM29.1612 11.0561C29.2672 10.9008 29.4227 10.7825 29.6045 10.7189C29.7863 10.6552 29.9846 10.6497 30.1699 10.7031C30.3583 10.7484 30.5247 10.8544 30.6414 11.0033C30.7581 11.1523 30.8179 11.3352 30.8108 11.5215C30.7862 11.8202 30.7397 12.1169 30.6715 12.4094C30.4876 13.3989 30.3092 14.3884 30.1142 15.3672C30.025 15.7577 29.908 16.1321 29.7798 16.5279C29.7352 16.6516 29.6607 16.7634 29.5625 16.8541C29.5014 16.9224 29.4234 16.9747 29.3356 17.0064C29.2479 17.038 29.1532 17.0479 29.0604 17.0351C28.9677 17.0223 28.8797 16.9872 28.8048 16.9332C28.7299 16.8791 28.6704 16.8078 28.6318 16.7258C28.5656 16.5787 28.5296 16.4206 28.5259 16.2604C28.5259 15.5972 28.5259 14.9286 28.5705 14.26C28.6463 13.3058 28.7953 12.3583 29.0163 11.4252C29.0424 11.3002 29.0914 11.1806 29.1612 11.0722V11.0561Z" fill="#3A3B7B"/>
<path fill-rule="evenodd" clip-rule="evenodd" d="M4.16231 22.5696C4.09651 22.7106 4.07847 22.8678 4.11062 23.019C4.13201 23.2184 4.179 23.4146 4.2505 23.6029C4.33978 23.8336 4.43968 24.0617 4.56285 24.3428C4.59118 24.4075 4.62078 24.4751 4.65176 24.5461C4.81787 24.927 5.02629 25.4137 5.3043 26.1182C5.38299 26.3183 5.45287 26.5201 5.52323 26.7232C5.55166 26.8053 5.58019 26.8876 5.60939 26.9702C5.71406 27.2636 5.89416 27.5272 6.13289 27.7361C6.23426 27.851 6.36872 27.9347 6.51949 27.9765C6.6732 28.0192 6.83669 28.0165 6.98877 27.9687C7.14084 27.921 7.27442 27.8304 7.37214 27.7088C7.46795 27.5896 7.52492 27.4459 7.536 27.2958C7.59816 27.0034 7.57694 26.7001 7.47449 26.4182C7.3119 25.9501 7.12668 25.4814 6.9131 25.0229L6.91212 25.0209C6.56076 24.3035 6.2036 23.5911 5.82954 22.8785L5.82674 22.8735C5.71724 22.6878 5.57493 22.5218 5.40622 22.383C5.29668 22.2591 5.1456 22.1755 4.97875 22.1467C4.80835 22.1173 4.6326 22.1469 4.48289 22.2304C4.34126 22.308 4.22899 22.4268 4.16231 22.5696Z" fill="#3A3B7B"/>
<path fill-rule="evenodd" clip-rule="evenodd" d="M9.52889 20.8033C8.97797 20.6664 8.4026 20.6464 7.84289 20.7448C7.40936 20.7858 6.98299 20.8818 6.68692 21.0719C6.53633 21.1687 6.41459 21.2929 6.34686 21.4508C6.27877 21.6096 6.27008 21.7912 6.32588 21.9935C6.42776 22.3641 6.56007 22.7244 6.69192 23.0836L6.71328 23.1418L6.71379 23.143C7.11077 24.1865 7.51153 25.2264 7.91594 26.2627C7.96309 26.426 8.02978 26.5836 8.11466 26.7322L8.11625 26.7349C8.22837 26.9195 8.37217 27.0846 8.54159 27.2233C8.62632 27.2996 8.73111 27.3523 8.84472 27.3759C8.95946 27.3997 9.07878 27.3928 9.18968 27.3559C9.30063 27.3191 9.39887 27.2537 9.47374 27.1669C9.5474 27.0815 9.59563 26.9787 9.61334 26.8692C9.68644 26.5718 9.66302 26.2601 9.54618 25.9758C9.50973 25.8802 9.48113 25.7824 9.45098 25.6795C9.44093 25.6452 9.43075 25.6103 9.42 25.5747C10.3457 25.2274 11.3307 24.7604 11.677 23.6741C11.8127 23.2987 11.824 22.8921 11.7094 22.5103C11.5947 22.128 11.3594 21.7891 11.0359 21.5404C10.5956 21.1922 10.0812 20.9406 9.52889 20.8033ZM8.00179 22.1358C8.02002 22.1308 8.03838 22.1261 8.0568 22.1217C8.65946 22.0308 9.27605 22.1519 9.79304 22.4628C10.0209 22.6149 10.1142 22.7839 10.1302 22.9465C10.1468 23.1139 10.0834 23.2953 9.95597 23.4696C9.71523 23.799 9.27591 24.0627 8.87907 24.1118C8.58978 23.4724 8.29599 22.8071 8.00179 22.1358Z" fill="#3A3B7B"/>
<path d="M13.2018 19.6328C13.8579 19.342 14.6706 19.2918 15.3065 19.4962C15.4667 19.541 15.6057 19.6379 15.6996 19.7702C15.793 19.9017 15.8361 20.0602 15.8217 20.2187C15.8208 20.3216 15.7945 20.4228 15.745 20.5141C15.6946 20.607 15.6216 20.6869 15.5323 20.7471C15.4429 20.8073 15.3398 20.8459 15.2316 20.8598C15.1233 20.8736 15.0133 20.8622 14.9106 20.8266L14.9028 20.8239L14.8955 20.8202C14.8429 20.7938 14.7871 20.7739 14.7294 20.761L14.7258 20.7602C14.2784 20.6461 13.8564 20.8351 13.7023 21.0673C13.6288 21.178 13.6196 21.2898 13.6809 21.3914C13.7464 21.5003 13.9073 21.6225 14.2327 21.7095C14.3222 21.7331 14.4139 21.7559 14.507 21.779C14.7643 21.8429 15.0317 21.9094 15.2903 22.0015L15.2913 22.0018C16.4843 22.4375 16.9285 23.3397 16.7764 24.1884C16.626 25.0276 15.8957 25.7914 14.7976 25.9715C14.398 26.0565 13.9821 26.04 13.5912 25.9235C13.1993 25.8067 12.846 25.5935 12.5665 25.305L12.5592 25.2975C12.4709 25.1888 12.4116 25.0611 12.3853 24.9256C12.361 24.8034 12.3738 24.677 12.4219 24.5615C12.4698 24.4466 12.5507 24.3472 12.6552 24.2747C12.7655 24.1926 12.8986 24.1433 13.0378 24.1331C13.1765 24.1228 13.3154 24.1518 13.4372 24.2163C13.5589 24.2727 13.6721 24.3447 13.7737 24.4303L13.7757 24.4319C13.9554 24.5896 14.1729 24.6307 14.3814 24.5926C14.593 24.554 14.7919 24.4339 14.9199 24.2744C15.047 24.116 15.0981 23.9278 15.0375 23.7452C14.9765 23.5611 14.7933 23.355 14.3907 23.1826C14.2854 23.1397 14.1763 23.1051 14.0628 23.0715C14.0321 23.0624 14.001 23.0533 13.9695 23.0442C13.8856 23.0197 13.7992 22.9945 13.7145 22.9668C13.6562 22.9477 13.5983 22.9296 13.541 22.9117C13.3844 22.8627 13.2317 22.815 13.0848 22.751C12.765 22.6465 12.4887 22.4458 12.297 22.1787C12.1046 21.9105 12.0077 21.5898 12.0209 21.2644C12.0219 20.4715 12.5422 19.9252 13.2018 19.6328Z" fill="#3A3B7B"/>
<path d="M21.5196 19.5484C21.3923 19.4888 21.2517 19.4605 21.1102 19.466C20.9688 19.4716 20.831 19.5109 20.7093 19.5804C20.5884 19.6494 20.4872 19.746 20.4147 19.8617C20.3482 19.9591 20.3021 20.068 20.2792 20.1823C20.2562 20.2966 20.2568 20.4141 20.2808 20.5281C20.3045 20.6746 20.3307 20.8171 20.3567 20.9576C20.3996 21.1902 20.4414 21.4175 20.469 21.6493L20.47 21.6551C20.5328 22.0186 20.5656 22.3862 20.5686 22.7546L20.5689 22.7599C20.5903 23.1577 20.4491 23.5478 20.1754 23.8474L20.1711 23.8527C20.082 23.9622 19.963 24.0458 19.8272 24.0941C19.6915 24.1424 19.5445 24.1535 19.4026 24.1262C19.2606 24.0988 19.1294 24.0342 19.0236 23.9393C18.9178 23.8445 18.8415 23.7229 18.8034 23.5889C18.7221 23.3065 18.675 23.0159 18.663 22.7231L18.8019 20.6007C18.804 20.573 18.8063 20.5445 18.8087 20.5158C18.814 20.4514 18.8194 20.3857 18.8217 20.3245C18.8249 20.2344 18.8221 20.1417 18.8003 20.054C18.7779 19.9643 18.7353 19.879 18.6598 19.8064C18.585 19.7345 18.484 19.6815 18.357 19.6454C18.1273 19.5816 17.9331 19.5836 17.7712 19.6495C17.6093 19.7155 17.4983 19.8379 17.4198 19.9792C17.3419 20.1194 17.2919 20.2854 17.254 20.4517C17.2259 20.5751 17.2033 20.7046 17.1819 20.8278C17.1745 20.8703 17.1672 20.912 17.1599 20.9525L17.1597 20.9537C17.0449 21.6298 17.0107 22.3162 17.0578 22.9997C17.0666 23.369 17.1469 23.7336 17.2946 24.0748C17.4612 24.515 17.763 24.8965 18.1601 25.1687C18.558 25.4416 19.0329 25.5919 19.5219 25.5999C20.0108 25.6078 20.4908 25.473 20.8981 25.2132C21.3048 24.9539 21.62 24.5822 21.802 24.1473C22.0566 23.5934 22.1761 22.9909 22.1514 22.3859C22.1365 21.9442 22.1114 21.4991 22.0865 21.0562C22.0743 20.839 22.0621 20.6222 22.0511 20.4068C22.0456 20.1907 21.9714 19.9815 21.8384 19.8071C21.7561 19.6969 21.6465 19.608 21.5196 19.5484Z" fill="#3A3B7B"/>
<path d="M26.0222 22.8764C26.0093 22.8921 25.9957 22.9084 25.9815 22.9253C25.8781 22.3524 25.7822 21.7797 25.6861 21.2061C25.6517 21.0003 25.617 20.7936 25.5822 20.5875L25.5783 20.5645L25.5656 20.5447C25.5416 20.5073 25.5392 20.4706 25.5392 20.3924V20.3834L25.5378 20.3745C25.5118 20.213 25.4357 20.0628 25.3195 19.9434C25.2036 19.8243 25.053 19.7415 24.8874 19.7055C24.7221 19.6664 24.5484 19.675 24.3882 19.7303C24.2283 19.7855 24.089 19.8847 23.9876 20.0155C23.9033 20.1158 23.8342 20.2271 23.7824 20.346C23.6648 20.6022 23.5463 20.859 23.4274 21.1165L23.4253 21.121C23.1285 21.7638 22.8297 22.411 22.5395 23.0633L22.5386 23.0654C22.3605 23.4884 22.2135 23.934 22.067 24.3783C22.0377 24.467 22.0085 24.5556 21.979 24.644C21.9261 24.7842 21.9029 24.9331 21.9109 25.082C21.9012 25.2153 21.9345 25.3482 22.0062 25.4629C22.0793 25.5799 22.1888 25.6719 22.3192 25.7261C22.4574 25.7843 22.612 25.7966 22.7584 25.7612C22.9045 25.7258 23.0343 25.6449 23.1272 25.5311C23.2459 25.391 23.3481 25.2381 23.4313 25.0761C23.6771 24.5936 23.912 24.1052 24.1458 23.6189C24.2363 23.4308 24.3242 23.2623 24.4242 23.0789C24.4311 23.1015 24.4381 23.1236 24.4454 23.1457C24.5502 23.5886 24.7271 24.0129 24.9697 24.4029C25.0155 24.4856 25.0795 24.5578 25.1571 24.6146C25.2356 24.6722 25.3262 24.7125 25.4226 24.733C25.519 24.7535 25.619 24.7536 25.7154 24.7333C25.8117 24.713 25.9026 24.6726 25.9812 24.6154L26.1367 24.5036L27.3436 23.528L27.2722 23.9645C27.1742 24.5645 27.077 25.1596 26.9737 25.7547C26.9062 26.0185 26.9063 26.2941 26.974 26.5578C27.0034 26.7062 27.0782 26.8428 27.1888 26.9502C27.3004 27.0586 27.4433 27.1321 27.5991 27.1615C27.7548 27.1908 27.9161 27.1746 28.0621 27.1148C28.2059 27.0559 28.3283 26.9575 28.4138 26.832C28.6128 26.5951 28.7367 26.3082 28.7707 26.0055C28.8219 25.5781 28.8798 25.1449 28.9377 24.7118C29.0044 24.2126 29.0711 23.7136 29.1274 23.2241L29.1276 23.2226C29.1818 22.6868 29.208 22.1488 29.2062 21.6105C29.2181 21.4404 29.1739 21.2709 29.0799 21.1261C28.9855 20.9807 28.8458 20.8677 28.6806 20.8031C28.5088 20.7281 28.3165 20.7081 28.132 20.746C27.9486 20.7836 27.7827 20.8764 27.6581 21.0107C27.4355 21.2083 27.2267 21.4198 27.033 21.6437L27.0317 21.6452C26.8202 21.8981 26.6102 22.156 26.4015 22.4122C26.2746 22.568 26.1481 22.7234 26.0222 22.8764Z" fill="#3A3B7B"/>
</g>
<defs>
<clipPath id="clip0_302_1232">
<rect width="32.7153" height="20.186" fill="white" transform="translate(1.16046 7.82068)"/>
</clipPath>
</defs>
</svg>
