<svg width="309" height="302" viewBox="0 0 309 302" fill="none" xmlns="http://www.w3.org/2000/svg">
<path d="M262.909 301.529C262.909 301.63 212.953 301.716 151.351 301.716C89.7479 301.716 39.7708 301.63 39.7708 301.529C39.7708 301.428 89.7191 301.342 151.351 301.342C212.982 301.342 262.909 301.435 262.909 301.529Z" fill="#263238"/>
<path d="M214.234 213.459C203.119 205.697 200.601 191.287 201.04 178.331C201.112 176.172 200.875 173.885 201.903 171.993C202.932 170.101 205.335 168.799 207.27 169.705C208.874 170.46 209.572 172.331 210.472 173.878C211.671 175.938 213.43 177.616 215.543 178.719C216.917 179.439 218.622 179.87 219.982 179.122C221.853 178.093 222.068 175.525 222.054 173.367C222.054 169.352 222.03 165.343 221.982 161.338C221.853 159.188 222.071 157.031 222.629 154.95C223.299 152.907 224.788 151.015 226.824 150.439C228.86 149.864 231.399 151.051 231.859 153.151C231.939 154.041 231.96 154.935 231.924 155.828C231.982 156.727 232.399 157.712 233.241 157.986C234.082 158.259 234.96 157.633 235.608 157C237.823 154.842 239.334 152.029 240.737 149.252C242.14 146.475 243.514 143.619 245.528 141.252C247.543 138.886 250.327 137.008 253.442 136.828C256.557 136.648 259.801 138.562 260.578 141.583C261.355 144.605 259.593 147.691 257.701 150.144C254.845 153.786 251.48 156.996 247.708 159.676C246.972 160.078 246.384 160.706 246.032 161.468C245.564 162.907 246.924 164.345 248.341 164.799C249.945 165.331 251.686 165.166 253.377 165.367C255.068 165.568 256.866 166.302 257.506 167.885C258.384 170.086 256.542 172.388 254.737 173.899C251.111 176.921 246.994 179.298 242.564 180.928C240.982 181.503 239.32 182.014 238.039 183.122C236.759 184.23 235.996 186.165 236.766 187.683C237.536 189.201 239.514 189.683 241.176 189.374C242.838 189.064 244.312 188.172 245.895 187.575C248.852 186.46 252.665 186.661 254.528 189.215C255.105 190.095 255.471 191.097 255.595 192.141C255.72 193.186 255.601 194.246 255.247 195.237C254.527 197.209 253.419 199.017 251.988 200.553C247.277 206.183 241.155 210.46 234.248 212.948C227.392 215.323 221.04 215.97 214.227 213.474" fill="#FBC02D"/>
<path d="M257.413 138.605C257.413 138.605 257.348 138.677 257.204 138.806L256.564 139.375C256.003 139.878 255.175 140.612 254.132 141.583C251.175 144.329 248.428 147.295 245.917 150.454C244.312 152.446 242.651 154.705 240.881 157.159C239.111 159.612 237.284 162.259 235.471 165.072C233.538 168.038 231.768 171.107 230.169 174.266C229.334 175.913 228.601 177.633 227.845 179.388L225.615 184.748C222.675 191.499 220.115 198.409 217.946 205.445C216.199 211.202 214.995 217.11 214.349 223.092C213.931 227.129 213.863 231.194 214.148 235.243C214.263 236.682 214.371 237.782 214.471 238.531C214.515 238.89 214.543 239.178 214.572 239.387V239.682C214.541 239.588 214.519 239.492 214.507 239.394C214.471 239.185 214.428 238.905 214.371 238.545C214.241 237.826 214.105 236.689 213.975 235.25C213.628 231.194 213.652 227.115 214.047 223.063C214.653 217.056 215.831 211.12 217.565 205.337C219.716 198.281 222.269 191.354 225.212 184.589L227.5 179.251C228.255 177.503 228.996 175.77 229.838 174.115C231.448 170.947 233.233 167.87 235.183 164.899C237.025 162.022 238.881 159.417 240.629 156.986C242.377 154.554 244.068 152.281 245.665 150.295C248.202 147.145 250.985 144.2 253.988 141.49C255.053 140.533 255.902 139.814 256.478 139.332L257.147 138.792C257.229 138.721 257.318 138.658 257.413 138.605Z" fill="#263238"/>
<path d="M229.931 174.101C229.83 173.804 229.76 173.498 229.723 173.187C229.608 172.59 229.478 171.748 229.327 170.655C229.018 168.496 228.701 165.54 228.363 162.266C228.025 158.993 227.644 156.029 227.327 153.892C227.162 152.828 227.018 151.972 226.917 151.375C226.839 151.069 226.797 150.755 226.795 150.439C226.919 150.727 227.008 151.029 227.061 151.339C227.219 151.928 227.399 152.777 227.601 153.849C228.011 156.007 228.414 158.943 228.752 162.223C229.09 165.504 229.378 168.381 229.601 170.619C229.708 171.626 229.802 172.482 229.874 173.165C229.93 173.474 229.949 173.788 229.931 174.101Z" fill="#263238"/>
<path d="M257.614 168.935C257.264 169.011 256.908 169.055 256.549 169.065C255.83 169.129 254.809 169.216 253.542 169.36C251.01 169.633 247.528 170.137 243.708 170.856C239.888 171.575 236.456 172.388 233.989 173.014C232.759 173.331 231.766 173.619 231.111 173.813C230.762 173.937 230.4 174.024 230.032 174.072C230.365 173.905 230.711 173.767 231.068 173.662C231.744 173.424 232.723 173.093 233.946 172.741C236.399 172.021 239.83 171.165 243.665 170.432C246.913 169.81 250.191 169.354 253.485 169.065C254.758 168.957 255.787 168.914 256.506 168.899C256.876 168.874 257.247 168.886 257.614 168.935Z" fill="#263238"/>
<path d="M217.917 204.834C217.841 204.729 217.778 204.616 217.73 204.495L217.256 203.495C216.845 202.625 216.292 201.337 215.63 199.762C214.292 196.596 212.587 192.165 210.774 187.244C208.961 182.323 207.292 177.892 206.026 174.69C205.407 173.137 204.896 171.863 204.515 170.914L204.112 169.885C204.056 169.766 204.017 169.64 203.997 169.511C204.074 169.615 204.136 169.729 204.184 169.849L204.659 170.849C205.062 171.719 205.623 173.007 206.285 174.583C207.623 177.748 209.328 182.179 211.141 187.1C212.953 192.021 214.623 196.452 215.889 199.654C216.507 201.208 217.018 202.481 217.392 203.431C217.558 203.841 217.694 204.15 217.802 204.459C217.858 204.578 217.897 204.704 217.917 204.834Z" fill="#263238"/>
<path d="M254.665 192.985C254.549 193.051 254.426 193.102 254.298 193.136L253.233 193.496L249.298 194.769C245.974 195.848 241.384 197.388 236.349 199.086C231.313 200.783 226.701 202.294 223.356 203.301C221.687 203.812 220.327 204.201 219.385 204.459L218.299 204.74C218.172 204.78 218.042 204.807 217.91 204.819C218.025 204.753 218.149 204.702 218.277 204.668L219.342 204.308L223.277 203.035C226.601 201.956 231.19 200.416 236.226 198.719C241.262 197.021 245.866 195.51 249.212 194.503C250.888 193.992 252.24 193.604 253.19 193.345L254.276 193.064C254.403 193.024 254.533 192.997 254.665 192.985Z" fill="#263238"/>
<path d="M239.672 18.4786L235.967 19.8023L234.377 14.9607C231.457 6.0329 222.147 1.29201 213.594 4.30632C205.04 7.32063 200.486 17.1118 203.407 26.0396L204.997 30.8812L201.278 32.2121C199.859 32.7622 198.708 33.8377 198.062 35.215C197.416 36.5923 197.326 38.1655 197.81 39.6076L208.119 71.1104C208.333 71.8243 208.688 72.4879 209.164 73.0617C209.639 73.6356 210.225 74.108 210.887 74.4509C211.549 74.7938 212.273 75.0003 213.016 75.0579C213.759 75.1156 214.506 75.0233 215.212 74.7865L253.607 61.0531C255.044 60.5039 256.212 59.4189 256.866 58.0263C257.519 56.6336 257.607 55.0418 257.111 53.5857L246.794 22.0829C246.575 21.371 246.214 20.7106 245.734 20.1412C245.253 19.5717 244.663 19.1049 243.999 18.7685C243.334 18.4321 242.608 18.2331 241.865 18.1833C241.122 18.1335 240.376 18.2339 239.672 18.4786ZM210.407 23.5145C209.619 21.1931 209.761 18.657 210.801 16.4376C211.842 14.2181 213.701 12.4875 215.989 11.6083C217.119 11.2217 218.315 11.0667 219.507 11.1525C220.698 11.2383 221.859 11.5631 222.922 12.1076C223.985 12.6521 224.927 13.4052 225.693 14.3218C226.458 15.2384 227.031 16.2998 227.378 17.4427L228.96 22.2843L211.989 28.3561L210.407 23.5145ZM231.989 51.4706L234.622 59.5136C234.67 59.6748 234.655 59.8485 234.578 59.9986C234.502 60.1486 234.371 60.2635 234.212 60.3193L230.521 61.6358C230.375 61.6765 230.218 61.6588 230.083 61.5864C229.949 61.514 229.848 61.3925 229.802 61.2473L227.147 53.2403C225.684 53.1606 224.279 52.6356 223.122 51.7356C221.965 50.8356 221.11 49.6036 220.673 48.2045C220.047 46.3549 220.161 44.3349 220.991 42.5675C221.821 40.8001 223.303 39.4223 225.126 38.7227C226.026 38.4152 226.979 38.292 227.927 38.3605C228.876 38.4291 229.801 38.6879 230.648 39.1215C231.494 39.5552 232.245 40.1549 232.855 40.8848C233.465 41.6147 233.921 42.4599 234.198 43.3701C234.66 44.7913 234.699 46.3167 234.308 47.7593C233.917 49.202 233.113 50.4992 231.996 51.4922L231.989 51.4706Z" fill="#FBC02D"/>
<path d="M235.802 19.716C235.802 19.8167 228.932 22.3994 220.385 25.4712C211.838 28.5431 204.867 31.0107 204.831 30.9387C204.795 30.8668 211.702 28.2625 220.255 25.1835C228.809 22.1044 235.766 19.6225 235.802 19.716Z" fill="#263238"/>
<path d="M243.96 21.0397C243.992 21.1021 244.018 21.1671 244.039 21.2339C244.097 21.3778 244.161 21.5649 244.248 21.7951C244.435 22.3202 244.694 23.0468 245.017 23.9533L247.78 31.9962C248.931 35.4062 250.305 39.4493 251.83 43.9384C252.55 46.1901 253.398 48.5354 254.19 51.003C254.613 52.2745 254.796 53.6139 254.729 54.9525C254.668 55.6487 254.47 56.3259 254.147 56.9453C253.801 57.5625 253.339 58.1073 252.787 58.5495C251.676 59.3608 250.442 59.9898 249.132 60.4128L245.427 61.7437L238.413 64.2544L226.536 68.4845L218.514 71.3046L216.356 72.024L215.781 72.211C215.719 72.2384 215.654 72.2554 215.586 72.2614C215.586 72.2614 215.644 72.2614 215.766 72.1751L216.327 71.9521L218.486 71.1391L226.464 68.204L238.32 63.8875L245.32 61.3552L249.024 60.0171C250.297 59.6114 251.495 59.0015 252.571 58.2114C253.085 57.801 253.515 57.2954 253.837 56.7222C254.142 56.1494 254.326 55.5201 254.377 54.8734C254.443 53.5836 254.267 52.2928 253.859 51.0677C253.082 48.6217 252.262 46.2549 251.521 44.0031C250.024 39.5068 248.643 35.4494 247.55 32.0394C246.456 28.6294 245.535 25.8885 244.902 23.9605C244.6 23.0181 244.37 22.2843 244.183 21.7519L244.01 21.1764C243.989 21.1328 243.972 21.0869 243.96 21.0397Z" fill="#263238"/>
<path d="M223.701 11.1191C223.701 11.1191 223.32 10.9321 222.615 10.6443C221.61 10.2582 220.547 10.0442 219.471 10.0112C217.876 9.95653 216.289 10.2563 214.824 10.8889C213.042 11.6766 211.519 12.9508 210.428 14.5651C209.331 16.1748 208.742 18.077 208.738 20.0254C208.753 21.6222 208.995 23.2089 209.457 24.7375C209.831 26.0468 210.22 27.0899 210.479 27.8165C210.632 28.1856 210.757 28.5655 210.853 28.9532C210.649 28.6081 210.477 28.2444 210.342 27.8669C210.047 27.1475 209.623 26.1259 209.205 24.8094C208.693 23.2648 208.414 21.6523 208.378 20.0254C208.359 18.0034 208.962 16.0244 210.105 14.3564C211.233 12.6832 212.819 11.3696 214.673 10.5724C216.184 9.93629 217.821 9.6557 219.457 9.75224C220.556 9.80827 221.636 10.0642 222.644 10.5076C222.913 10.6319 223.173 10.7762 223.421 10.9393C223.523 10.9842 223.618 11.0449 223.701 11.1191Z" fill="#263238"/>
<path d="M224.032 39.2695C224.147 39.1999 224.268 39.1398 224.392 39.0896C224.752 38.9271 225.125 38.7948 225.507 38.694C226.114 38.515 226.739 38.4087 227.37 38.3774C228.229 38.3313 229.089 38.461 229.896 38.7587C231.737 39.4062 233.428 41.2838 234.262 43.7946C234.663 45.1419 234.663 46.5766 234.262 47.9239C233.819 49.3863 233.023 50.7177 231.946 51.8015L231.989 51.6073C232.946 54.2331 233.989 57.082 235.068 60.0531L235.133 60.233L234.953 60.2977L233.306 60.8445L229.709 62.0459L229.529 62.1034L229.471 61.9236C228.485 58.9452 227.406 56.1683 226.593 53.4418L226.752 53.5641C225.345 53.4473 224.004 52.9194 222.896 52.0461C221.893 51.2736 221.07 50.2916 220.486 49.1685C219.958 48.1726 219.696 47.0578 219.723 45.9312C219.756 44.7797 220.044 43.6499 220.565 42.6226C221.086 41.5953 221.828 40.6959 222.737 39.9889C223.112 39.685 223.532 39.4422 223.982 39.2695C223.576 39.5106 223.182 39.7723 222.802 40.0536C221.803 40.8988 221.038 41.9862 220.579 43.2118C220.186 44.136 220.002 45.1359 220.04 46.1396C220.079 47.1434 220.339 48.1262 220.802 49.0174C221.377 50.0978 222.18 51.0404 223.155 51.78C224.212 52.61 225.491 53.1104 226.831 53.2188H226.953L226.989 53.3267C227.78 56.0029 228.867 58.8014 229.867 61.7941L229.629 61.679L233.226 60.4776L234.867 59.9236L234.752 60.1682C233.68 57.1971 232.644 54.341 231.694 51.7152V51.6073L231.78 51.521C232.826 50.4821 233.606 49.2062 234.054 47.8016C234.435 46.5128 234.435 45.141 234.054 43.8521C233.27 41.4349 231.651 39.6004 229.896 38.9529C229.119 38.6533 228.289 38.5139 227.457 38.5429C226.835 38.5571 226.218 38.6416 225.615 38.7947C224.543 39.0609 224.04 39.3055 224.032 39.2695Z" fill="#263238"/>
<path d="M201.795 246.991L129.934 246.66C125.784 246.637 121.813 244.968 118.893 242.019C115.972 239.071 114.342 235.084 114.359 230.934L115.121 50.7871C115.13 48.7311 115.543 46.6969 116.339 44.8008C117.134 42.9047 118.295 41.1839 119.755 39.7368C121.216 38.2897 122.947 37.1445 124.85 36.3669C126.754 35.5893 128.792 35.1944 130.848 35.2048L202.702 35.5357C206.852 35.5567 210.824 37.2239 213.745 40.1711C216.667 43.1184 218.3 47.1048 218.284 51.2548L217.522 231.394C217.513 233.451 217.1 235.486 216.305 237.383C215.51 239.279 214.349 241.001 212.889 242.449C211.428 243.898 209.697 245.044 207.794 245.823C205.89 246.603 203.852 246.999 201.795 246.991Z" fill="#455A64"/>
<path d="M202.594 41.7298H188.666C188.212 41.7383 187.764 41.8361 187.347 42.0179C186.93 42.1996 186.554 42.4616 186.238 42.7889C185.923 43.1163 185.675 43.5026 185.509 43.9257C185.343 44.3488 185.262 44.8005 185.271 45.2549V47.78C185.279 48.2341 185.198 48.6854 185.032 49.1082C184.866 49.5309 184.618 49.9167 184.303 50.2434C183.987 50.5702 183.611 50.8315 183.194 51.0125C182.777 51.1934 182.329 51.2904 181.875 51.2979L154.725 51.1756C153.806 51.1511 152.935 50.7631 152.302 50.0968C151.67 49.4305 151.327 48.5403 151.351 47.6218V45.0967C151.374 44.1793 151.033 43.2902 150.402 42.6241C149.77 41.958 148.901 41.5691 147.984 41.5428H143.085L130.891 41.4852C127.99 41.468 125.201 42.6007 123.134 44.6353C121.067 46.67 119.891 49.4408 119.862 52.3411L119.143 228.178C119.136 229.617 119.413 231.043 119.958 232.375C120.502 233.707 121.304 234.918 122.316 235.941C123.329 236.963 124.533 237.775 125.86 238.332C127.187 238.889 128.61 239.179 130.049 239.185L201.759 239.516C203.199 239.523 204.626 239.246 205.959 238.701C207.292 238.156 208.504 237.354 209.527 236.341C210.55 235.327 211.363 234.122 211.92 232.795C212.477 231.467 212.767 230.043 212.774 228.603L213.493 52.7655C213.51 49.8571 212.372 47.0608 210.328 44.9914C208.284 42.922 205.502 41.7488 202.594 41.7298Z" fill="white"/>
<path d="M192.947 216.056L139.624 215.826C139.07 215.826 138.624 215.222 138.632 214.488L138.689 200.539C138.689 199.819 139.142 199.201 139.696 199.201L193.019 199.445C193.326 199.498 193.6 199.668 193.785 199.919C193.97 200.169 194.051 200.482 194.011 200.791L193.961 214.725C193.961 215.466 193.501 216.064 192.947 216.056Z" fill="#FBC02D"/>
<path d="M155.836 209.379C155.542 209.379 155.259 209.332 154.987 209.238C154.72 209.14 154.512 209.015 154.365 208.864L154.529 208.541C154.669 208.677 154.855 208.792 155.089 208.887C155.327 208.977 155.576 209.023 155.836 209.023C156.085 209.023 156.287 208.992 156.442 208.932C156.601 208.868 156.716 208.783 156.787 208.677C156.863 208.572 156.9 208.455 156.9 208.326C156.9 208.172 156.855 208.047 156.765 207.953C156.678 207.859 156.563 207.785 156.419 207.732C156.276 207.676 156.118 207.626 155.944 207.585C155.77 207.543 155.597 207.5 155.423 207.455C155.25 207.406 155.089 207.342 154.942 207.262C154.799 207.183 154.682 207.079 154.591 206.951C154.504 206.819 154.461 206.647 154.461 206.436C154.461 206.24 154.512 206.061 154.614 205.898C154.72 205.732 154.88 205.6 155.095 205.502C155.31 205.4 155.585 205.349 155.921 205.349C156.144 205.349 156.365 205.381 156.584 205.446C156.802 205.506 156.991 205.591 157.15 205.7L157.008 206.034C156.838 205.921 156.657 205.838 156.465 205.785C156.276 205.732 156.093 205.706 155.916 205.706C155.678 205.706 155.482 205.738 155.327 205.802C155.172 205.866 155.057 205.953 154.982 206.062C154.91 206.168 154.874 206.289 154.874 206.425C154.874 206.579 154.918 206.704 155.004 206.798C155.095 206.893 155.212 206.966 155.355 207.019C155.502 207.072 155.663 207.119 155.836 207.16C156.01 207.202 156.182 207.247 156.351 207.296C156.525 207.345 156.684 207.409 156.827 207.489C156.974 207.564 157.091 207.666 157.178 207.794C157.268 207.923 157.314 208.091 157.314 208.298C157.314 208.491 157.261 208.67 157.155 208.836C157.05 208.998 156.887 209.13 156.668 209.232C156.453 209.33 156.176 209.379 155.836 209.379ZM158.226 209.345V205.383H158.645V209.345H158.226ZM159.934 209.345V205.383H160.279L163.013 208.824H162.832V205.383H163.245V209.345H162.9L160.172 205.904H160.353V209.345H159.934ZM166.276 209.379C165.974 209.379 165.695 209.33 165.438 209.232C165.186 209.13 164.965 208.989 164.776 208.808C164.591 208.626 164.446 208.413 164.34 208.168C164.238 207.923 164.187 207.655 164.187 207.364C164.187 207.074 164.238 206.806 164.34 206.561C164.446 206.315 164.593 206.102 164.782 205.921C164.97 205.74 165.191 205.6 165.444 205.502C165.701 205.4 165.98 205.349 166.282 205.349C166.584 205.349 166.859 205.396 167.108 205.491C167.361 205.585 167.576 205.728 167.753 205.921L167.493 206.187C167.327 206.021 167.144 205.902 166.944 205.83C166.744 205.759 166.529 205.723 166.299 205.723C166.053 205.723 165.827 205.764 165.619 205.847C165.416 205.927 165.236 206.042 165.082 206.193C164.931 206.34 164.812 206.513 164.725 206.713C164.642 206.91 164.601 207.127 164.601 207.364C164.601 207.598 164.642 207.815 164.725 208.015C164.812 208.215 164.931 208.391 165.082 208.541C165.236 208.689 165.416 208.804 165.619 208.887C165.827 208.966 166.051 209.006 166.293 209.006C166.519 209.006 166.733 208.972 166.933 208.904C167.136 208.836 167.323 208.721 167.493 208.558L167.731 208.875C167.542 209.041 167.321 209.168 167.068 209.255C166.816 209.338 166.551 209.379 166.276 209.379ZM167.329 208.824V207.364H167.731V208.875L167.329 208.824ZM171.993 209.379C171.488 209.379 171.09 209.234 170.799 208.943C170.509 208.653 170.363 208.223 170.363 207.653V205.383H170.782V207.636C170.782 208.104 170.888 208.449 171.099 208.672C171.31 208.894 171.609 209.006 171.993 209.006C172.382 209.006 172.682 208.894 172.893 208.672C173.105 208.449 173.21 208.104 173.21 207.636V205.383H173.618V207.653C173.618 208.223 173.473 208.653 173.182 208.943C172.895 209.234 172.499 209.379 171.993 209.379ZM174.88 209.345V205.383H176.363C176.699 205.383 176.987 205.438 177.229 205.547C177.47 205.653 177.655 205.808 177.783 206.011C177.916 206.211 177.982 206.455 177.982 206.742C177.982 207.021 177.916 207.262 177.783 207.466C177.655 207.666 177.47 207.821 177.229 207.93C176.987 208.04 176.699 208.094 176.363 208.094H175.112L175.299 207.896V209.345H174.88ZM175.299 207.93L175.112 207.726H176.352C176.748 207.726 177.048 207.642 177.251 207.472C177.459 207.298 177.563 207.055 177.563 206.742C177.563 206.425 177.459 206.179 177.251 206.006C177.048 205.832 176.748 205.745 176.352 205.745H175.112L175.299 205.547V207.93Z" fill="#E8E8E3"/>
<path d="M150.26 93.4193L131.757 93.3353L131.742 96.7309L150.245 96.8149L150.26 93.4193Z" fill="#FBC02D"/>
<path opacity="0.1" d="M150.26 93.4193L131.757 93.3353L131.742 96.7309L150.245 96.8149L150.26 93.4193Z" fill="black"/>
<path d="M204.5 114.268C204.646 114.253 204.788 114.219 204.925 114.167C205.124 114.089 205.297 113.957 205.424 113.785C205.552 113.613 205.628 113.409 205.644 113.196C205.644 112.052 205.644 110.383 205.644 108.239C205.644 107.167 205.644 105.966 205.644 104.642C205.644 104.318 205.644 103.98 205.644 103.642C205.691 103.314 205.62 102.98 205.443 102.699C205.344 102.565 205.215 102.456 205.066 102.379C204.918 102.303 204.754 102.263 204.587 102.261H203.464H193.069L132.898 102.038C132.744 102.035 132.592 102.07 132.454 102.139C132.316 102.207 132.197 102.309 132.107 102.433C131.933 102.715 131.866 103.049 131.92 103.376C131.92 104.095 131.92 104.815 131.92 105.534C131.92 106.973 131.92 108.412 131.92 109.85C131.92 110.57 131.92 111.289 131.92 112.009C131.89 112.344 131.89 112.681 131.92 113.016C131.957 113.159 132.028 113.292 132.125 113.405C132.222 113.517 132.344 113.605 132.481 113.663C132.622 113.72 132.774 113.747 132.927 113.742H136.588L152.566 113.829L179.616 113.994L197.853 114.138L202.81 114.196H204.098C204.392 114.196 204.536 114.196 204.536 114.196H204.098H202.81H197.853H179.616L152.566 114.109L136.588 114.045H132.927C132.725 114.053 132.524 114.018 132.337 113.944C132.147 113.863 131.979 113.74 131.844 113.584C131.71 113.428 131.612 113.244 131.56 113.045C131.518 112.856 131.504 112.662 131.517 112.469V111.937C131.517 111.217 131.517 110.498 131.517 109.778C131.517 108.34 131.517 106.901 131.517 105.462C131.517 104.743 131.517 104.023 131.517 103.304C131.503 103.112 131.503 102.92 131.517 102.728C131.544 102.517 131.625 102.316 131.754 102.146C131.878 101.972 132.042 101.831 132.233 101.734C132.423 101.638 132.634 101.589 132.848 101.592L193.019 101.923L203.414 101.994H204.536C204.734 101.995 204.929 102.042 205.104 102.134C205.28 102.225 205.43 102.358 205.544 102.52C205.746 102.832 205.828 103.208 205.774 103.577C205.774 103.915 205.774 104.253 205.774 104.577C205.774 105.886 205.774 107.088 205.774 108.174C205.774 110.332 205.723 111.987 205.709 113.138C205.691 113.359 205.611 113.571 205.477 113.748C205.343 113.925 205.162 114.061 204.954 114.138C204.817 114.222 204.661 114.267 204.5 114.268Z" fill="#E0E0E0"/>
<path d="M171.156 105.649H137.315V108.822H171.156V105.649Z" fill="#FBC02D"/>
<path opacity="0.2" d="M171.156 105.649H137.315V108.822H171.156V105.649Z" fill="white"/>
<path d="M150.134 124.396L131.631 124.312L131.616 127.708L150.119 127.792L150.134 124.396Z" fill="#FBC02D"/>
<path opacity="0.1" d="M150.134 124.396L131.631 124.312L131.616 127.708L150.119 127.792L150.134 124.396Z" fill="black"/>
<path d="M204.033 145.245C204.178 145.227 204.322 145.201 204.464 145.166C204.665 145.102 204.85 144.996 205.007 144.854C205.163 144.713 205.287 144.539 205.371 144.346C205.484 144.055 205.529 143.743 205.5 143.432C205.5 143.087 205.5 142.713 205.5 142.296C205.5 141.461 205.5 140.511 205.5 139.418V134.85C205.535 134.519 205.462 134.186 205.292 133.9C205.114 133.607 204.835 133.389 204.508 133.289C204.149 133.225 203.784 133.205 203.421 133.231H193.069L133.107 133.008C132.784 133.009 132.473 133.127 132.231 133.34C131.988 133.553 131.832 133.847 131.79 134.166C131.79 134.85 131.79 135.605 131.79 136.325C131.79 137.763 131.79 139.202 131.79 140.641C131.79 141.36 131.79 142.08 131.79 142.799C131.763 143.135 131.778 143.474 131.833 143.806C131.923 144.098 132.108 144.351 132.358 144.526C132.624 144.694 132.936 144.775 133.25 144.756H134.25H136.329L152.25 144.835L179.206 145.001L197.378 145.144L202.321 145.202H197.378H179.206L152.236 145.173L136.315 145.116H133.186C132.797 145.139 132.41 145.035 132.085 144.821C131.758 144.594 131.519 144.261 131.409 143.878C131.344 143.513 131.325 143.141 131.351 142.77C131.351 142.051 131.351 141.332 131.351 140.612C131.351 139.173 131.351 137.735 131.351 136.296C131.351 135.576 131.351 134.857 131.351 134.138C131.404 133.726 131.604 133.348 131.915 133.074C132.227 132.8 132.627 132.649 133.042 132.648L193.004 132.979L203.357 133.058C203.742 133.035 204.129 133.061 204.508 133.138C204.881 133.26 205.197 133.516 205.392 133.857C205.579 134.174 205.659 134.542 205.623 134.907C205.623 135.245 205.623 135.576 205.623 135.907C205.623 137.209 205.623 138.404 205.623 139.504C205.623 140.605 205.623 141.533 205.623 142.382C205.623 142.792 205.623 143.173 205.623 143.526C205.649 143.848 205.597 144.171 205.472 144.468C205.378 144.667 205.243 144.843 205.076 144.984C204.908 145.126 204.712 145.23 204.5 145.288C204.343 145.301 204.185 145.287 204.033 145.245Z" fill="#E0E0E0"/>
<path d="M149.995 156.718L131.492 156.634L131.476 160.03L149.979 160.114L149.995 156.718Z" fill="#FBC02D"/>
<path opacity="0.1" d="M149.995 156.718L131.492 156.634L131.476 160.03L149.979 160.114L149.995 156.718Z" fill="black"/>
<path d="M203.889 177.554C204.034 177.537 204.179 177.51 204.321 177.475C204.521 177.411 204.705 177.306 204.861 177.166C205.017 177.025 205.142 176.854 205.227 176.662C205.34 176.371 205.384 176.058 205.357 175.748C205.357 175.395 205.357 175.029 205.357 174.604C205.357 173.777 205.357 172.82 205.357 171.727V167.158C205.391 166.828 205.318 166.495 205.148 166.209C204.966 165.921 204.688 165.707 204.364 165.604C204.006 165.538 203.641 165.516 203.277 165.54H192.925L132.963 165.317C132.64 165.317 132.329 165.435 132.087 165.648C131.845 165.861 131.688 166.155 131.646 166.475C131.646 167.194 131.646 167.914 131.646 168.633C131.646 170.072 131.646 171.511 131.646 172.95C131.646 173.669 131.646 174.388 131.646 175.108C131.619 175.442 131.634 175.777 131.689 176.108C131.776 176.401 131.961 176.656 132.215 176.827C132.479 177 132.792 177.08 133.107 177.057H136.236L152.156 177.144L179.113 177.309L197.285 177.453L202.227 177.511H197.285H179.113L152.156 177.431L136.236 177.367H133.107C132.717 177.393 132.33 177.289 132.006 177.072C131.679 176.845 131.44 176.512 131.33 176.129C131.265 175.764 131.246 175.392 131.272 175.021C131.272 174.302 131.272 173.583 131.272 172.863C131.272 171.424 131.272 169.986 131.272 168.547C131.272 167.827 131.272 167.108 131.272 166.353C131.323 165.942 131.522 165.564 131.832 165.29C132.142 165.015 132.542 164.864 132.956 164.863L192.918 165.194L203.27 165.273C203.656 165.25 204.043 165.276 204.421 165.353C204.795 165.475 205.11 165.731 205.306 166.072C205.492 166.389 205.573 166.757 205.536 167.122C205.536 167.46 205.536 167.799 205.536 168.122C205.536 169.424 205.536 170.619 205.536 171.719C205.536 172.82 205.536 173.748 205.536 174.597C205.536 175.007 205.536 175.388 205.536 175.741C205.564 176.063 205.512 176.386 205.385 176.683C205.292 176.882 205.157 177.058 204.989 177.199C204.822 177.341 204.625 177.445 204.414 177.503C204.245 177.561 204.066 177.578 203.889 177.554Z" fill="#E0E0E0"/>
<path d="M170.434 137.524L136.593 137.37L136.579 140.543L170.419 140.696L170.434 137.524Z" fill="#FBC02D"/>
<path opacity="0.2" d="M170.434 137.524L136.593 137.37L136.579 140.543L170.419 140.696L170.434 137.524Z" fill="white"/>
<path d="M139.653 171.683C139.632 171.973 139.526 172.249 139.349 172.479C139.172 172.709 138.931 172.882 138.657 172.976C138.383 173.071 138.087 173.082 137.806 173.01C137.525 172.938 137.271 172.784 137.076 172.569C136.882 172.354 136.754 172.087 136.71 171.8C136.666 171.513 136.707 171.22 136.829 170.956C136.95 170.692 137.146 170.47 137.392 170.317C137.638 170.163 137.924 170.086 138.214 170.093C138.615 170.116 138.991 170.295 139.26 170.593C139.53 170.89 139.671 171.282 139.653 171.683Z" fill="#FBC02D"/>
<path d="M144.236 171.705C144.25 171.908 144.222 172.111 144.154 172.303C144.086 172.495 143.98 172.67 143.841 172.819C143.702 172.968 143.535 173.086 143.348 173.167C143.162 173.248 142.961 173.29 142.757 173.29C142.554 173.29 142.353 173.248 142.166 173.167C141.98 173.086 141.812 172.968 141.674 172.819C141.535 172.67 141.428 172.495 141.36 172.303C141.293 172.111 141.265 171.908 141.279 171.705C141.265 171.502 141.293 171.299 141.36 171.107C141.428 170.915 141.535 170.74 141.674 170.591C141.812 170.442 141.98 170.324 142.166 170.243C142.353 170.162 142.554 170.12 142.757 170.12C142.961 170.12 143.162 170.162 143.348 170.243C143.535 170.324 143.702 170.442 143.841 170.591C143.98 170.74 144.086 170.915 144.154 171.107C144.222 171.299 144.25 171.502 144.236 171.705Z" fill="#FBC02D"/>
<path d="M148.826 171.727C148.804 172.016 148.699 172.293 148.522 172.523C148.344 172.752 148.104 172.925 147.829 173.02C147.555 173.114 147.259 173.126 146.978 173.053C146.697 172.981 146.443 172.828 146.249 172.612C146.054 172.397 145.927 172.13 145.883 171.843C145.839 171.556 145.88 171.263 146.001 170.999C146.122 170.735 146.318 170.513 146.564 170.36C146.811 170.207 147.097 170.129 147.387 170.137C147.787 170.161 148.162 170.341 148.431 170.638C148.7 170.935 148.841 171.326 148.826 171.727Z" fill="#FBC02D"/>
<path d="M153.408 171.748C153.387 172.037 153.281 172.314 153.104 172.544C152.927 172.774 152.686 172.947 152.412 173.041C152.138 173.135 151.842 173.147 151.561 173.075C151.28 173.002 151.026 172.849 150.831 172.634C150.637 172.419 150.509 172.151 150.465 171.865C150.421 171.578 150.462 171.284 150.584 171.021C150.705 170.757 150.901 170.535 151.147 170.381C151.393 170.228 151.679 170.151 151.969 170.158C152.37 170.182 152.744 170.362 153.013 170.66C153.282 170.957 153.424 171.348 153.408 171.748Z" fill="#FBC02D"/>
<path d="M157.991 171.762C157.971 172.052 157.866 172.33 157.69 172.561C157.514 172.792 157.274 172.966 156.999 173.061C156.725 173.156 156.428 173.169 156.147 173.097C155.865 173.026 155.611 172.873 155.416 172.658C155.22 172.443 155.092 172.176 155.048 171.888C155.003 171.601 155.044 171.308 155.165 171.044C155.286 170.78 155.482 170.557 155.729 170.403C155.975 170.25 156.262 170.172 156.552 170.18C156.951 170.204 157.324 170.383 157.593 170.679C157.862 170.974 158.005 171.363 157.991 171.762Z" fill="#FBC02D"/>
<path d="M162.581 171.784C162.561 172.072 162.458 172.349 162.283 172.579C162.108 172.809 161.87 172.983 161.598 173.08C161.325 173.177 161.031 173.192 160.75 173.123C160.469 173.054 160.215 172.905 160.018 172.694C159.821 172.482 159.69 172.218 159.641 171.933C159.593 171.648 159.628 171.355 159.744 171.09C159.86 170.826 160.05 170.6 160.292 170.442C160.534 170.284 160.817 170.201 161.106 170.201C161.511 170.216 161.894 170.391 162.17 170.688C162.447 170.985 162.594 171.379 162.581 171.784Z" fill="#FBC02D"/>
<path d="M167.163 171.806C167.177 172.008 167.15 172.212 167.082 172.404C167.014 172.595 166.907 172.771 166.769 172.92C166.63 173.068 166.462 173.187 166.276 173.268C166.089 173.349 165.888 173.391 165.685 173.391C165.482 173.391 165.28 173.349 165.094 173.268C164.907 173.187 164.74 173.068 164.601 172.92C164.462 172.771 164.356 172.595 164.288 172.404C164.22 172.212 164.192 172.008 164.206 171.806C164.192 171.603 164.22 171.399 164.288 171.208C164.356 171.016 164.462 170.84 164.601 170.692C164.74 170.543 164.907 170.424 165.094 170.343C165.28 170.262 165.482 170.221 165.685 170.221C165.888 170.221 166.089 170.262 166.276 170.343C166.462 170.424 166.63 170.543 166.769 170.692C166.907 170.84 167.014 171.016 167.082 171.208C167.15 171.399 167.177 171.603 167.163 171.806Z" fill="#FBC02D"/>
<path d="M171.746 171.827C171.726 172.116 171.623 172.392 171.448 172.622C171.273 172.852 171.035 173.026 170.763 173.123C170.491 173.22 170.196 173.235 169.915 173.166C169.635 173.097 169.38 172.948 169.183 172.737C168.986 172.525 168.855 172.261 168.807 171.976C168.758 171.691 168.793 171.398 168.909 171.134C169.025 170.869 169.215 170.643 169.457 170.486C169.699 170.328 169.982 170.244 170.271 170.245C170.676 170.26 171.059 170.435 171.335 170.731C171.612 171.028 171.759 171.422 171.746 171.827Z" fill="#FBC02D"/>
<path d="M176.328 171.849C176.309 172.139 176.204 172.416 176.028 172.647C175.851 172.878 175.611 173.052 175.337 173.147C175.062 173.243 174.766 173.255 174.485 173.184C174.203 173.112 173.949 172.959 173.753 172.744C173.558 172.53 173.43 172.262 173.386 171.975C173.341 171.688 173.382 171.394 173.503 171.13C173.624 170.866 173.82 170.643 174.066 170.49C174.313 170.336 174.599 170.258 174.89 170.266C175.288 170.29 175.662 170.469 175.931 170.765C176.2 171.061 176.342 171.45 176.328 171.849Z" fill="#FBC02D"/>
<g opacity="0.2">
<path d="M139.653 171.683C139.632 171.973 139.526 172.249 139.349 172.479C139.172 172.709 138.931 172.882 138.657 172.976C138.383 173.071 138.087 173.082 137.806 173.01C137.525 172.938 137.271 172.784 137.076 172.569C136.882 172.354 136.754 172.087 136.71 171.8C136.666 171.513 136.707 171.22 136.829 170.956C136.95 170.692 137.146 170.47 137.392 170.317C137.638 170.163 137.924 170.086 138.214 170.093C138.615 170.116 138.991 170.295 139.26 170.593C139.53 170.89 139.671 171.282 139.653 171.683Z" fill="white"/>
<path d="M144.236 171.705C144.25 171.908 144.222 172.111 144.154 172.303C144.086 172.495 143.98 172.67 143.841 172.819C143.702 172.968 143.535 173.086 143.348 173.167C143.162 173.248 142.961 173.29 142.757 173.29C142.554 173.29 142.353 173.248 142.166 173.167C141.98 173.086 141.812 172.968 141.674 172.819C141.535 172.67 141.428 172.495 141.36 172.303C141.293 172.111 141.265 171.908 141.279 171.705C141.265 171.502 141.293 171.299 141.36 171.107C141.428 170.915 141.535 170.74 141.674 170.591C141.812 170.442 141.98 170.324 142.166 170.243C142.353 170.162 142.554 170.12 142.757 170.12C142.961 170.12 143.162 170.162 143.348 170.243C143.535 170.324 143.702 170.442 143.841 170.591C143.98 170.74 144.086 170.915 144.154 171.107C144.222 171.299 144.25 171.502 144.236 171.705Z" fill="white"/>
<path d="M148.826 171.727C148.804 172.016 148.699 172.293 148.522 172.523C148.344 172.752 148.104 172.925 147.829 173.02C147.555 173.114 147.259 173.126 146.978 173.053C146.697 172.981 146.443 172.828 146.249 172.612C146.054 172.397 145.927 172.13 145.883 171.843C145.839 171.556 145.88 171.263 146.001 170.999C146.122 170.735 146.318 170.513 146.564 170.36C146.811 170.207 147.097 170.129 147.387 170.137C147.787 170.161 148.162 170.341 148.431 170.638C148.7 170.935 148.841 171.326 148.826 171.727Z" fill="white"/>
<path d="M153.408 171.748C153.387 172.037 153.281 172.314 153.104 172.544C152.927 172.774 152.686 172.947 152.412 173.041C152.138 173.135 151.842 173.147 151.561 173.075C151.28 173.002 151.026 172.849 150.831 172.634C150.637 172.419 150.509 172.151 150.465 171.865C150.421 171.578 150.462 171.284 150.584 171.021C150.705 170.757 150.901 170.535 151.147 170.381C151.393 170.228 151.679 170.151 151.969 170.158C152.37 170.182 152.744 170.362 153.013 170.66C153.282 170.957 153.424 171.348 153.408 171.748Z" fill="white"/>
<path d="M157.991 171.762C157.971 172.052 157.866 172.33 157.69 172.561C157.514 172.792 157.274 172.966 156.999 173.061C156.725 173.156 156.428 173.169 156.147 173.097C155.865 173.026 155.611 172.873 155.416 172.658C155.22 172.443 155.092 172.176 155.048 171.889C155.003 171.601 155.044 171.308 155.165 171.044C155.286 170.78 155.482 170.557 155.729 170.403C155.975 170.25 156.262 170.172 156.552 170.18C156.951 170.204 157.324 170.383 157.593 170.679C157.862 170.974 158.005 171.363 157.991 171.762Z" fill="white"/>
<path d="M162.581 171.784C162.561 172.072 162.457 172.349 162.283 172.579C162.108 172.809 161.87 172.983 161.598 173.08C161.325 173.177 161.031 173.192 160.75 173.123C160.469 173.054 160.215 172.905 160.018 172.694C159.821 172.482 159.69 172.218 159.641 171.933C159.593 171.648 159.628 171.355 159.744 171.09C159.859 170.826 160.05 170.6 160.292 170.442C160.534 170.284 160.817 170.201 161.106 170.201C161.511 170.216 161.894 170.391 162.17 170.688C162.447 170.985 162.594 171.379 162.581 171.784Z" fill="white"/>
<path d="M167.163 171.806C167.177 172.008 167.15 172.212 167.082 172.404C167.014 172.595 166.907 172.771 166.769 172.92C166.63 173.068 166.462 173.187 166.276 173.268C166.089 173.349 165.888 173.391 165.685 173.391C165.482 173.391 165.28 173.349 165.094 173.268C164.907 173.187 164.74 173.068 164.601 172.92C164.462 172.771 164.356 172.595 164.288 172.404C164.22 172.212 164.192 172.008 164.206 171.806C164.192 171.603 164.22 171.399 164.288 171.208C164.356 171.016 164.462 170.84 164.601 170.692C164.74 170.543 164.907 170.424 165.094 170.343C165.28 170.262 165.482 170.22 165.685 170.22C165.888 170.22 166.089 170.262 166.276 170.343C166.462 170.424 166.63 170.543 166.769 170.692C166.907 170.84 167.014 171.016 167.082 171.208C167.15 171.399 167.177 171.603 167.163 171.806Z" fill="white"/>
<path d="M171.746 171.827C171.726 172.116 171.623 172.392 171.448 172.622C171.273 172.852 171.035 173.026 170.763 173.123C170.491 173.22 170.196 173.235 169.915 173.166C169.635 173.097 169.38 172.948 169.183 172.737C168.986 172.525 168.855 172.261 168.807 171.976C168.758 171.691 168.793 171.398 168.909 171.134C169.025 170.869 169.215 170.643 169.457 170.486C169.699 170.328 169.982 170.244 170.271 170.245C170.676 170.26 171.059 170.435 171.335 170.731C171.612 171.028 171.759 171.422 171.746 171.827Z" fill="white"/>
<path d="M176.328 171.849C176.309 172.139 176.204 172.416 176.028 172.647C175.851 172.878 175.611 173.052 175.337 173.147C175.062 173.243 174.766 173.255 174.485 173.184C174.203 173.112 173.949 172.959 173.753 172.744C173.558 172.529 173.43 172.262 173.386 171.975C173.341 171.688 173.382 171.394 173.503 171.13C173.624 170.866 173.82 170.643 174.066 170.49C174.313 170.336 174.599 170.258 174.89 170.266C175.288 170.29 175.662 170.469 175.931 170.765C176.2 171.061 176.342 171.449 176.328 171.849Z" fill="white"/>
</g>
<path d="M169.818 67.9953C170.318 67.7753 170.742 67.4131 171.037 66.9539C171.333 66.4947 171.486 65.9587 171.48 65.4127C171.498 65.0577 171.444 64.7027 171.321 64.3692C171.198 64.0357 171.009 63.7308 170.764 63.473C170.52 63.2151 170.225 63.0098 169.898 62.8695C169.572 62.7292 169.22 62.6568 168.865 62.6568C168.509 62.6568 168.157 62.7292 167.831 62.8695C167.504 63.0098 167.21 63.2151 166.965 63.473C166.72 63.7308 166.531 64.0357 166.408 64.3692C166.285 64.7027 166.231 65.0577 166.25 65.4127C166.239 65.9642 166.391 66.5065 166.688 66.9713C166.985 67.4361 167.414 67.8025 167.919 68.0241C163.89 68.6284 164.07 73.0024 164.07 73.0024L173.595 73.0456C173.595 73.0456 173.818 68.5924 169.818 67.9953Z" fill="#FBC02D"/>
<path opacity="0.1" d="M169.818 67.9953C170.318 67.7753 170.742 67.4131 171.037 66.9539C171.333 66.4947 171.486 65.9587 171.48 65.4127C171.498 65.0577 171.444 64.7027 171.321 64.3692C171.198 64.0357 171.009 63.7308 170.764 63.473C170.52 63.2151 170.225 63.0098 169.898 62.8695C169.572 62.7292 169.22 62.6568 168.865 62.6568C168.509 62.6568 168.157 62.7292 167.831 62.8695C167.504 63.0098 167.21 63.2151 166.965 63.473C166.72 63.7308 166.531 64.0357 166.408 64.3692C166.285 64.7027 166.231 65.0577 166.25 65.4127C166.239 65.9642 166.391 66.5065 166.688 66.9713C166.985 67.4361 167.414 67.8025 167.919 68.0241C163.89 68.6284 164.07 73.0024 164.07 73.0024L173.595 73.0456C173.595 73.0456 173.818 68.5924 169.818 67.9953Z" fill="black"/>
<path d="M185.296 75.8667L151.347 75.7126L151.329 79.77L185.277 79.9241L185.296 75.8667Z" fill="#FBC02D"/>
<path opacity="0.2" d="M185.296 75.8667L151.347 75.7126L151.329 79.77L185.277 79.9241L185.296 75.8667Z" fill="white"/>
<path d="M60.4897 96.8939H60.1516L59.1732 96.9658C58.6437 96.9976 58.1172 97.0674 57.5977 97.1745C57.2612 97.2217 56.9274 97.2865 56.5977 97.3687L55.4826 97.6781C53.5847 98.2603 51.794 99.1472 50.1806 100.304C48.0489 101.851 46.2689 103.832 44.9577 106.117C44.1871 107.434 43.5738 108.836 43.1304 110.296C42.6646 111.883 42.3964 113.521 42.3319 115.174C42.289 116.042 42.3034 116.912 42.3751 117.778C42.3751 118.217 42.4974 118.656 42.5549 119.102C42.6033 119.552 42.6875 119.997 42.8067 120.433C43.4536 123.32 44.7662 126.015 46.6398 128.305C48.5134 130.594 50.8961 132.414 53.5978 133.62C55.5532 134.463 57.6491 134.934 59.7775 135.008C61.9758 135.129 64.1763 134.814 66.2522 134.08L66.8852 133.843H66.9716L67.0435 133.886L76.1152 138.49L75.849 138.72C74.8778 135.713 73.9426 132.799 73.0362 130.001V129.893L73.1153 129.814C75.316 127.597 76.9496 124.883 77.8778 121.9C78.7184 119.174 78.9637 116.299 78.5972 113.469C78.2711 110.954 77.4626 108.526 76.2159 106.318C75.1413 104.421 73.7551 102.719 72.1153 101.282C70.7625 100.145 69.2651 99.1921 67.6622 98.4478C66.4494 97.9247 65.1862 97.527 63.8925 97.2608L62.4537 97.0234L61.4106 96.9443L60.7775 96.9011H60.5617C60.6334 96.8931 60.7058 96.8931 60.7775 96.9011H61.4177L62.4609 96.9443L63.8997 97.1529C65.2095 97.3996 66.4899 97.783 67.7197 98.2967C69.3502 99.0322 70.8745 99.9831 72.252 101.124C73.9219 102.554 75.3376 104.257 76.4389 106.16C77.721 108.392 78.5543 110.853 78.8921 113.404C79.2891 116.278 79.0609 119.203 78.2231 121.98C77.2889 125.024 75.63 127.796 73.3887 130.059L73.4318 129.871C74.3383 132.67 75.2807 135.584 76.2591 138.583L76.3958 139.022L75.9857 138.814L66.914 134.217H67.0723L66.4248 134.454C64.309 135.199 62.0678 135.521 59.8279 135.404C57.6536 135.321 55.5139 134.833 53.5187 133.965C49.7128 132.335 46.5463 129.502 44.5045 125.9C43.5649 124.237 42.8787 122.443 42.4686 120.577C42.3563 120.129 42.2722 119.675 42.2168 119.217C42.1592 118.764 42.0657 118.318 42.0441 117.872C41.8494 115.312 42.12 112.738 42.8427 110.275C43.297 108.795 43.9274 107.375 44.7203 106.045C46.0628 103.739 47.8799 101.746 50.0511 100.196C51.6911 99.0363 53.5119 98.1563 55.4395 97.5917L56.5689 97.304C56.9014 97.2269 57.2375 97.1668 57.5761 97.1241C58.101 97.0269 58.6325 96.9692 59.166 96.9514L60.1516 96.9155C60.2637 96.9004 60.3766 96.8932 60.4897 96.8939Z" fill="#FBC02D"/>
<path d="M64.5903 113.67H63.2594L60.3818 109.627V106.973C60.3818 106.973 58.3243 106.843 58.5689 110.318C58.8135 113.793 58.5689 112.908 58.5689 112.908C58.5689 112.908 54.2021 112.908 53.8424 113.304C53.4827 113.699 53.4611 117.915 53.4107 120.267C53.3832 120.834 53.5459 121.395 53.873 121.859C54.2002 122.323 54.673 122.664 55.2164 122.828C55.3687 122.871 55.526 122.892 55.684 122.893C56.7775 122.893 62.3386 122.008 62.3386 122.008H64.6335L64.5903 113.67Z" fill="#FBC02D"/>
<path d="M68.396 112.958L67.5759 122.052H65.3026V113.145L68.396 112.958Z" fill="#FBC02D"/>
<path d="M95.5104 298.083V291.932L84.4819 291.853L84.3884 301.155L85.0718 301.205C88.1149 301.4 100.553 301.687 102.597 301.054C104.87 300.349 95.5104 298.083 95.5104 298.083Z" fill="#FBC02D"/>
<path d="M102.855 300.479C102.855 300.579 98.7261 300.666 93.6399 300.666C88.5537 300.666 84.4243 300.579 84.4243 300.479C84.4243 300.378 88.5537 300.292 93.6399 300.292C98.7261 300.292 102.855 300.378 102.855 300.479Z" fill="#263238"/>
<path d="M95.7046 299.342C95.6111 299.292 95.7046 298.968 95.9276 298.623C96.1506 298.277 96.4528 298.133 96.5247 298.205C96.5967 298.277 96.4456 298.551 96.2298 298.846C96.0139 299.141 95.7981 299.392 95.7046 299.342Z" fill="#263238"/>
<path d="M96.4096 299.745C96.3089 299.745 96.3593 299.342 96.5751 298.961C96.7909 298.579 97.0787 298.349 97.1578 298.407C97.237 298.464 97.1075 298.788 96.906 299.126C96.7046 299.464 96.5032 299.781 96.4096 299.745Z" fill="#263238"/>
<path d="M87.748 300.45C87.7048 300.45 87.5394 300.32 87.302 300.047C87.0122 299.696 86.6894 299.373 86.338 299.083C85.9924 298.807 85.5808 298.626 85.1438 298.558C84.8056 298.515 84.5898 298.558 84.5682 298.515C84.5467 298.471 84.7553 298.32 85.151 298.292C85.6731 298.281 86.1825 298.454 86.5898 298.781C86.9713 299.092 87.2931 299.47 87.5394 299.896C87.7048 300.212 87.7912 300.421 87.748 300.45Z" fill="#263238"/>
<path d="M95.7405 298.184C95.7909 298.27 95.6039 298.486 95.2873 298.601C94.9708 298.716 94.6902 298.673 94.6758 298.601C94.6614 298.529 94.8845 298.378 95.1578 298.277C95.4312 298.177 95.683 298.097 95.7405 298.184Z" fill="#263238"/>
<path d="M95.5679 297.587C95.5679 297.695 95.2802 297.781 94.9061 297.788C94.532 297.795 94.237 297.709 94.2442 297.608C94.2514 297.507 94.5464 297.414 94.9061 297.407C95.2658 297.4 95.5535 297.486 95.5679 297.587Z" fill="#263238"/>
<path d="M122.668 298.083V291.932L111.639 291.853L111.546 301.061L112.229 301.112C115.272 301.306 127.718 301.687 129.754 301.054C132.027 300.349 122.668 298.083 122.668 298.083Z" fill="#FBC02D"/>
<path d="M130.013 300.493C130.013 300.594 125.891 300.68 120.798 300.68C115.704 300.68 111.589 300.594 111.589 300.493C111.589 300.392 115.711 300.306 120.798 300.306C125.884 300.306 130.013 300.392 130.013 300.493Z" fill="#263238"/>
<path d="M122.862 299.342C122.776 299.292 122.862 298.968 123.085 298.623C123.308 298.277 123.61 298.133 123.682 298.205C123.754 298.277 123.603 298.551 123.387 298.846C123.172 299.141 122.956 299.392 122.862 299.342Z" fill="#263238"/>
<path d="M123.567 299.745C123.474 299.745 123.517 299.342 123.74 298.961C123.963 298.579 124.243 298.349 124.323 298.407C124.402 298.464 124.265 298.788 124.064 299.126C123.862 299.464 123.668 299.781 123.567 299.745Z" fill="#263238"/>
<path d="M114.906 300.45C114.862 300.45 114.704 300.32 114.46 300.047C114.17 299.696 113.847 299.373 113.495 299.083C113.15 298.807 112.738 298.626 112.301 298.558C111.97 298.515 111.747 298.558 111.726 298.515C111.704 298.471 111.913 298.32 112.308 298.292C112.831 298.281 113.34 298.454 113.747 298.781C114.131 299.09 114.453 299.468 114.697 299.896C114.862 300.212 114.949 300.421 114.906 300.45Z" fill="#263238"/>
<path d="M122.898 298.184C122.949 298.27 122.762 298.486 122.445 298.601C122.128 298.716 121.848 298.673 121.833 298.601C121.819 298.529 122.042 298.378 122.315 298.277C122.589 298.177 122.841 298.097 122.898 298.184Z" fill="#263238"/>
<path d="M122.74 297.587C122.74 297.695 122.452 297.781 122.078 297.788C121.704 297.795 121.416 297.709 121.423 297.608C121.431 297.507 121.718 297.414 122.078 297.407C122.438 297.4 122.74 297.486 122.74 297.587Z" fill="#263238"/>
<path d="M163.3 115.426C163.012 115.131 162.3 115.275 162.3 115.275C162.371 114.861 162.371 114.437 162.3 114.023C162.171 113.62 161.264 113.699 161.264 113.699C161.222 113.36 161.222 113.017 161.264 112.678C161.271 112.602 161.255 112.527 161.218 112.461C161.18 112.396 161.124 112.343 161.055 112.311C160.627 112.136 160.166 112.053 159.703 112.066C159.149 111.67 161.394 108.527 162.228 107.52C163.063 106.512 162.912 105.728 162.171 105.728C161.66 105.728 159.041 108.75 158.235 109.764C157.43 110.778 155.293 113.599 155.221 111.347C155.149 109.095 154.243 107.397 153.674 107.109C153.106 106.822 152.502 107.498 152.811 108.124C153.083 108.835 153.252 109.581 153.315 110.34C153.393 110.944 153.366 111.557 153.236 112.152C152.997 113.26 152.672 114.347 152.264 115.404H152.207C152.207 115.404 136.509 130.461 135.373 131.533C134.358 132.497 113.956 130.389 109.863 129.958C108.472 129.754 107.067 129.658 105.661 129.67C103.884 129.749 103.568 130.001 101.798 130.023C97.3286 130.072 92.8696 130.464 88.4602 131.195C86.4636 131.535 84.5985 132.416 83.0686 133.743C81.5386 135.07 80.4025 136.792 79.7841 138.72C75.6619 151.598 66.324 182.079 64.6766 199.201C63.4317 201.458 62.3079 203.78 61.3098 206.157C60.1515 209.308 60.4321 209.416 60.8206 209.488C61.8709 209.682 63.0651 204.028 63.5112 205.395C63.9572 206.762 61.245 212.136 62.3457 212.294C63.7846 212.495 64.9284 206.539 65.0651 206.064C65.2018 205.589 65.914 205.74 65.7845 206.186C65.5759 206.819 63.5543 213.531 64.9644 213.747C65.7413 213.862 65.8277 212.445 65.8277 212.445C65.8277 212.445 67.2665 206.021 67.9211 206.15C68.5758 206.28 67.878 210.071 67.547 211.337C67.2161 212.603 67.6765 213.243 68.3528 212.934C68.8132 212.718 69.9139 208.869 70.216 207.618C70.5182 206.366 71.2736 202.898 72.2879 204.906C73.3023 206.913 74.8418 208.078 75.4749 208.107C75.6176 208.09 75.752 208.032 75.861 207.938C75.97 207.845 76.0485 207.721 76.0864 207.582C76.1243 207.444 76.1199 207.297 76.0737 207.161C76.0276 207.025 75.9418 206.906 75.8274 206.819C75.2829 206.287 74.8155 205.682 74.439 205.021C74.1034 204.505 73.8599 203.936 73.7196 203.337C73.4296 202.144 73.2609 200.924 73.216 199.697L73.1009 198.978C74.7123 190.999 79.3525 167.583 86.0502 152.626L88.7983 158.281L89.9925 162.468L82.669 180.546L113.906 180.136L109.244 162.194L114.906 143.49C121.028 143.627 136.747 143.857 139.365 142.67C142.66 141.231 159.703 119.706 159.703 119.706C160.814 118.843 161.878 117.921 162.89 116.944C162.89 116.944 163.926 116.073 163.3 115.426Z" fill="#FFBE9D"/>
<path d="M81.2949 167.187C82.2014 164.094 86.8559 148.799 86.8559 148.799C86.8559 148.799 89.1436 161.266 88.5393 162.77C87.9835 164.057 87.3268 165.298 86.5754 166.482C81.2949 174.518 81.9856 178.539 81.9856 178.539L113.891 177.568C113.963 173.108 111.323 162.734 110.776 161.079C110.229 159.425 112.05 154.008 112.05 154.008C112.05 154.008 115.647 150.346 115.517 148.461C115.449 146.768 115.239 145.083 114.891 143.425L134.315 144.145L133.704 130.979L105.805 128.188C104.834 130.929 96.0499 129.584 96.0499 129.584C86.5682 129.9 85.9783 131.641 82.0359 134.706C78.0936 137.771 71.5685 164.072 71.5685 164.072L81.2949 167.187Z" fill="#FBC02D"/>
<path d="M100.158 164.072C99.6048 164.171 99.0417 164.2 98.4815 164.158C97.4384 164.158 96.0068 164.086 94.4313 163.928C92.8558 163.77 91.4314 163.547 90.417 163.345C89.8577 163.273 89.3093 163.133 88.7839 162.928C89.3464 162.928 89.9076 162.981 90.4602 163.086C91.4817 163.216 92.8989 163.396 94.4672 163.554C96.0355 163.712 97.46 163.82 98.4887 163.892C99.0495 163.899 99.6083 163.96 100.158 164.072Z" fill="#263238"/>
<path d="M102.345 161.36C101.792 161.631 101.207 161.831 100.604 161.957C97.7336 162.711 94.7724 163.062 91.8054 163C91.1915 163.02 90.5775 162.962 89.9781 162.827C90.5841 162.751 91.1949 162.72 91.8054 162.734C92.9349 162.698 94.4888 162.619 96.201 162.417C97.9132 162.216 99.4383 161.928 100.517 161.698C101.117 161.538 101.728 161.425 102.345 161.36Z" fill="#263238"/>
<path d="M113.078 149.259C113.064 149.808 112.989 150.353 112.855 150.885C112.668 151.885 112.38 153.252 112.014 154.749C111.647 156.245 111.294 157.626 110.978 158.561C110.85 159.097 110.662 159.616 110.416 160.108C110.457 159.561 110.558 159.021 110.719 158.497C110.992 157.374 111.301 156.079 111.647 154.662C111.992 153.245 112.323 151.95 112.596 150.828C112.694 150.288 112.855 149.761 113.078 149.259Z" fill="#263238"/>
<path d="M81.633 165.353C79.9687 165.096 78.3262 164.713 76.7195 164.209C75.0777 163.825 73.4666 163.32 71.8995 162.698C73.563 162.959 75.2052 163.341 76.813 163.842C78.4552 164.224 80.0663 164.729 81.633 165.353Z" fill="#263238"/>
<path d="M115.236 143.267C114.965 143.314 114.688 143.314 114.416 143.267C113.665 143.19 112.927 143.013 112.222 142.742C111.045 142.299 109.974 141.616 109.077 140.735C108.18 139.854 107.477 138.795 107.014 137.627C106.501 136.341 106.283 134.957 106.373 133.576C106.405 132.437 106.746 131.328 107.359 130.368C107.79 129.721 108.434 129.245 109.179 129.023C109.378 128.968 109.584 128.941 109.791 128.943C109.934 128.943 110.006 128.943 110.006 128.943C110.006 128.943 109.704 128.943 109.222 129.138C108.539 129.39 107.959 129.864 107.575 130.483C106.596 132.022 106.323 134.835 107.366 137.461C107.852 138.699 108.612 139.811 109.589 140.713C110.39 141.451 111.312 142.045 112.316 142.468C113.257 142.84 114.237 143.108 115.236 143.267Z" fill="#263238"/>
<path d="M132.006 143.886C131.826 141.679 131.768 139.465 131.833 137.253C131.777 135.042 131.844 132.83 132.035 130.627C132.215 132.831 132.272 135.043 132.207 137.253C132.268 139.466 132.201 141.68 132.006 143.886Z" fill="#263238"/>
<path d="M105.618 128.994C105.697 127.39 105.863 125.577 105.863 125.577C105.863 125.577 109.834 125.138 110.071 121.037C110.309 116.937 110.071 107.476 110.071 107.476L102.877 103.793L94.8917 110.073L96.1219 130.577L103.445 131.044C104.005 131.06 104.548 130.852 104.956 130.468C105.363 130.084 105.601 129.554 105.618 128.994Z" fill="#FFBE9D"/>
<path d="M106.33 117.793C106.33 117.793 106.33 117.872 106.265 117.965C106.212 118.033 106.143 118.087 106.064 118.122C105.985 118.157 105.898 118.172 105.812 118.167C105.352 118.167 104.906 117.634 104.748 117.016C104.672 116.716 104.672 116.402 104.748 116.102C104.762 115.971 104.809 115.846 104.885 115.738C104.96 115.63 105.061 115.542 105.179 115.483C105.276 115.443 105.385 115.443 105.481 115.483C105.553 115.519 105.611 115.577 105.647 115.649C105.697 115.771 105.647 115.85 105.647 115.843C105.647 115.836 105.647 115.771 105.575 115.699C105.537 115.648 105.482 115.612 105.42 115.599C105.357 115.585 105.292 115.595 105.237 115.627C105.148 115.681 105.075 115.755 105.024 115.845C104.972 115.934 104.944 116.035 104.942 116.138C104.881 116.406 104.881 116.683 104.942 116.951C105.086 117.512 105.474 117.965 105.819 118.008C105.887 118.018 105.956 118.013 106.021 117.994C106.087 117.976 106.148 117.944 106.201 117.901C106.287 117.843 106.316 117.785 106.33 117.793Z" fill="#EB996E"/>
<path d="M112.539 105.261C111.985 103.376 109.978 102.441 108.15 101.923C105.366 101.131 102.359 100.786 99.6398 101.786C96.9204 102.786 93.6543 104.541 93.6543 107.541C92.05 107.412 91.1292 108.814 90.4961 110.555C90.0914 111.616 89.8488 112.732 89.7767 113.865C89.5753 117.793 88.4746 123.217 85.9279 126.095C84.4891 127.699 82.4963 128.807 81.6762 130.807C80.9568 132.54 81.3309 134.598 80.6618 136.353C80.0647 137.9 78.7482 139.001 77.7842 140.346C76.8021 141.872 76.2241 143.623 76.1046 145.434C75.985 147.245 76.3278 149.056 77.1008 150.698C77.8793 152.298 78.9754 153.723 80.3223 154.885C81.6692 156.048 83.2386 156.924 84.9351 157.461C88.2955 158.483 91.8789 158.518 95.2586 157.561C97.795 156.955 100.161 155.782 102.179 154.13C104.244 152.444 105.662 150.095 106.194 147.483C106.704 144.547 105.884 141.562 105.273 138.641C103.359 129.411 103.906 128.929 106.323 120.361C106.381 120.21 106.409 120.052 106.453 119.901C106.496 119.749 106.517 119.678 106.546 119.562C106.615 119.224 106.651 118.879 106.654 118.534C106.301 118.665 105.918 118.693 105.549 118.614C105.181 118.535 104.843 118.352 104.575 118.088C104.306 117.806 104.119 117.456 104.033 117.076C103.947 116.696 103.965 116.3 104.086 115.929C104.255 115.524 104.508 115.159 104.828 114.858C105.148 114.557 105.527 114.326 105.942 114.181C106.74 113.85 107.596 113.678 108.381 113.311C110.042 112.519 111.193 110.879 111.978 109.16C112.622 107.968 112.821 106.586 112.539 105.261Z" fill="#263238"/>
<path d="M106.618 117.987C106.77 118.211 106.896 118.453 106.992 118.706C107.208 119.16 107.496 119.8 107.812 120.541L107.87 120.677H107.719L106.999 120.742C106.503 120.742 106.086 120.836 105.596 120.829C105.554 120.819 105.514 120.799 105.482 120.77C105.449 120.741 105.424 120.704 105.409 120.663C105.388 120.598 105.388 120.527 105.409 120.462C105.426 120.365 105.448 120.269 105.474 120.174L105.604 119.663C105.669 119.322 105.77 118.99 105.906 118.67C105.892 119.018 105.842 119.363 105.755 119.699L105.654 120.21C105.618 120.383 105.553 120.649 105.654 120.627C106.014 120.627 106.524 120.548 106.999 120.519L107.719 120.454L107.625 120.613C107.316 119.893 107.057 119.217 106.906 118.749C106.773 118.511 106.676 118.254 106.618 117.987Z" fill="#FBC02D"/>
<path d="M81.9855 178.539L113.891 177.568L127.776 231.768L125.222 293.939H108.352L110.416 233.092L98.0787 195.359L99.9779 296.349L82.928 296.601L81.1366 201.675C81.0575 199.035 80.1942 193.086 80.5179 190.467L81.9855 178.539Z" fill="#263238"/>
<path d="M102.323 196.129C101.801 196.162 101.277 196.13 100.762 196.035C99.798 195.92 98.4815 195.719 97.0355 195.431C95.5895 195.143 94.2946 194.812 93.3593 194.546C92.8594 194.436 92.3758 194.262 91.9205 194.028C91.9205 193.92 94.2658 194.481 97.1434 195.064C100.021 195.647 102.338 196.021 102.323 196.129Z" fill="#455A64"/>
<path d="M125.049 290.529C125.049 290.63 121.229 290.716 116.517 290.716C111.805 290.716 107.978 290.63 107.978 290.529C107.978 290.429 111.798 290.342 116.517 290.342C121.236 290.342 125.049 290.421 125.049 290.529Z" fill="#455A64"/>
<path d="M99.8268 293.723C99.8268 293.831 96.1147 293.91 91.5393 293.91C86.9639 293.91 83.2589 293.831 83.2589 293.723C83.2589 293.615 86.9711 293.536 91.5393 293.536C96.1075 293.536 99.8268 293.623 99.8268 293.723Z" fill="#455A64"/>
<path d="M97.6254 293.464C97.5247 293.464 97.0787 271.4 96.6255 244.185C96.1722 216.97 95.9061 194.891 95.9996 194.891C96.0931 194.891 96.5535 216.948 96.9996 244.178C97.4456 271.407 97.7334 293.464 97.6254 293.464Z" fill="#455A64"/>
<path d="M122.783 290.529C122.775 290.431 122.775 290.332 122.783 290.234V289.371C122.783 288.594 122.841 287.479 122.884 286.062C122.985 283.184 123.128 279.004 123.308 273.882C123.697 263.58 124.243 249.379 124.841 233.703C124.841 233.552 124.841 233.408 124.841 233.279V233.329C121.064 218.222 117.647 204.51 115.165 194.589L112.287 182.856C111.956 181.482 111.704 180.41 111.524 179.662C111.438 179.309 111.38 179.036 111.33 178.827C111.302 178.733 111.285 178.637 111.28 178.539C111.317 178.63 111.346 178.724 111.366 178.82C111.424 179.021 111.496 179.295 111.596 179.64C111.791 180.359 112.071 181.453 112.431 182.82C113.15 185.597 114.165 189.597 115.431 194.525C117.934 204.438 121.387 218.114 125.215 233.243V233.293C125.215 233.423 125.215 233.574 125.215 233.718C124.574 249.394 123.992 263.587 123.567 273.889C123.344 279.019 123.157 283.17 123.028 286.062C122.956 287.501 122.898 288.594 122.862 289.371C122.862 289.738 122.819 290.026 122.812 290.234C122.813 290.333 122.803 290.432 122.783 290.529Z" fill="#455A64"/>
<path d="M117.28 232.013C116.068 232.411 114.82 232.688 113.553 232.84C111.999 233.106 110.675 233.293 110.078 233.322V233.178C110.273 233.236 110.373 233.272 110.373 233.301C110.373 233.329 110.251 233.301 110.05 233.301H109.618L110.05 233.171C110.611 233.006 111.934 232.732 113.488 232.452C114.735 232.181 116.005 232.034 117.28 232.013Z" fill="#455A64"/>
<path d="M116.985 234.077C115.863 234.129 114.738 234.078 113.625 233.926C112.501 233.903 111.382 233.781 110.28 233.559C112.528 233.376 114.791 233.551 116.985 234.077Z" fill="#455A64"/>
<path opacity="0.2" d="M81.8489 179.683C82.2267 180.168 82.7027 180.568 83.2456 180.857C83.7886 181.146 84.3863 181.317 84.9999 181.359C86.2849 181.512 87.5846 181.487 88.8631 181.287C97.1003 180.374 105.827 179.532 113.891 177.568C103.453 178.151 92.4241 177.957 81.9856 178.539L81.8776 179.431" fill="black"/>
<g opacity="0.2">
<path d="M92.6039 194.395L98.4887 217.229L98.0786 195.359L92.6039 194.395Z" fill="black"/>
</g>
</svg>
