<svg width="46" height="40" viewBox="0 0 46 40" fill="none" xmlns="http://www.w3.org/2000/svg">
<path d="M45.6659 26.4845C45.6659 33.4043 40.0564 39.0138 33.1366 39.0138L14.3428 39.0138C12.4206 39.0138 10.8624 37.4556 10.8624 35.5334L10.8624 11.8671C10.8624 8.02279 13.9788 4.90639 17.8231 4.90639L42.1856 4.90639C44.1077 4.90639 45.6659 6.4646 45.6659 8.38674L45.6659 26.4845Z" fill="#FBC02D"/>
<path d="M20.1283 16.4923C19.9607 16.4923 19.8051 16.4462 19.6668 16.3721V16.374C19.6668 16.6377 19.5643 16.8854 19.3784 17.0709C19.1924 17.2568 18.945 17.3593 18.6816 17.3593C18.5115 17.3593 18.3539 17.3121 18.2142 17.236C18.2001 17.4772 18.1036 17.7027 17.9316 17.8749C17.7456 18.0609 17.4982 18.1634 17.2346 18.1634C16.711 18.1634 16.2857 17.7518 16.2551 17.2358C16.0931 17.3234 15.9099 17.3693 15.721 17.3572C15.2058 17.3234 14.8024 16.8783 14.8024 16.3437V11.9121L14.2978 12.7863C14.1056 13.1207 13.7458 13.3283 13.3585 13.3283C13.1697 13.3283 12.9832 13.2788 12.8181 13.1841C12.6125 13.0649 12.4654 12.8735 12.4042 12.6446C12.3427 12.4155 12.3745 12.1759 12.4934 11.9706C12.4936 11.9706 14.1445 9.11168 14.2452 8.93607C14.2572 8.90966 14.2913 8.83308 14.3203 8.76781C14.348 8.70549 14.3718 8.64154 14.3946 8.57725C14.8925 7.17169 16.1252 6.29859 17.612 6.29859C19.5426 6.29859 21.1134 8.0018 21.1134 10.0954L21.1135 15.5069C21.1135 15.7702 21.0112 16.0177 20.8254 16.2038C20.6394 16.3898 20.392 16.4923 20.1283 16.4923L20.1283 16.4923ZM17.612 6.82213C16.3345 6.82213 15.3162 7.54372 14.8881 8.75234C14.8607 8.82909 14.8321 8.90584 14.7988 8.98062C14.7023 9.19726 14.7023 9.19725 14.675 9.22841L14.6714 9.22529C14.5366 9.47965 14.1362 10.1732 12.9467 12.2326C12.8978 12.3171 12.8849 12.4151 12.9098 12.5089C12.9351 12.6027 12.9956 12.6818 13.0794 12.7301C13.3395 12.8795 13.6957 12.7831 13.8439 12.5248L14.8376 10.8045C14.8969 10.702 15.017 10.6517 15.1321 10.6828C15.2466 10.7135 15.3261 10.8173 15.3261 10.9357V16.3439C15.3261 16.599 15.5186 16.8193 15.7553 16.8348C15.8917 16.8421 16.019 16.7963 16.1146 16.7009C16.2015 16.6139 16.2494 16.4982 16.2494 16.3743V12.8374C16.2494 12.6927 16.3666 12.5755 16.5113 12.5755C16.6559 12.5755 16.7732 12.6926 16.7732 12.8374L16.773 17.1783C16.773 17.4328 16.9801 17.6399 17.2346 17.6399C17.3583 17.6399 17.4744 17.5921 17.5615 17.5051C17.6484 17.4181 17.6963 17.302 17.6963 17.1783V12.8374C17.6963 12.6927 17.8134 12.5755 17.9582 12.5755C18.1028 12.5755 18.2201 12.6925 18.2201 12.8374L18.2199 16.3337V16.3743C18.2199 16.6287 18.427 16.8358 18.6817 16.8358C18.8052 16.8358 18.921 16.7878 19.0086 16.7005C19.0955 16.6138 19.1434 16.498 19.1434 16.3742V12.8372C19.1434 12.6925 19.2604 12.5753 19.4053 12.5753C19.5499 12.5753 19.6671 12.6924 19.6671 12.8372L19.6668 15.507C19.6668 15.7617 19.8739 15.9688 20.1283 15.9688C20.2521 15.9688 20.3679 15.9207 20.4548 15.834C20.542 15.7467 20.5898 15.6306 20.5898 15.507L20.5899 10.0955C20.5899 8.29076 19.2541 6.82218 17.612 6.82218L17.612 6.82213Z" fill="#103E13"/>
<path d="M9.83862 20.2534L13.639 17.9736C14.0972 17.6984 14.6867 17.8153 14.9806 18.2399C15.0878 18.3945 15.1426 18.5748 15.1511 18.7583C15.2928 18.6843 15.447 18.6441 15.6039 18.6441C15.6843 18.6441 15.765 18.6541 15.8447 18.674C16.1 18.7378 16.3151 18.8973 16.4505 19.123C16.5859 19.349 16.6254 19.6138 16.5616 19.8688C16.5028 20.1048 16.3593 20.3034 16.1597 20.4397C16.2993 20.522 16.4196 20.6344 16.5052 20.7774C16.6407 21.0033 16.6802 21.2681 16.6166 21.5234C16.5528 21.7784 16.3932 21.9935 16.1672 22.1292L16.1659 22.13C16.303 22.2122 16.4213 22.3234 16.5059 22.4642C16.6415 22.6902 16.681 22.955 16.6172 23.2104C16.5533 23.4655 16.3937 23.6807 16.1681 23.8162L11.5278 26.6C10.6617 27.1193 9.66056 27.2986 8.70908 27.1042C7.74907 26.9081 6.95402 26.3563 6.47059 25.5504C5.70555 24.2754 5.82021 22.7689 6.76922 21.6192C6.81268 21.5667 6.85548 21.5132 6.89435 21.4578C6.93551 21.3992 6.98356 21.3304 6.99996 21.3068C7.09819 21.1313 8.70107 18.2434 8.70091 18.2437C8.86277 17.9516 9.16615 17.7863 9.47904 17.7865C9.625 17.7865 9.77308 17.8224 9.9097 17.8982C10.0747 17.9903 10.2132 18.1246 10.3102 18.2865C10.5094 18.6186 10.5165 19.0341 10.3289 19.3705L9.83862 20.2534ZM9.86141 18.5557C9.81058 18.4709 9.74072 18.4034 9.65527 18.3555C9.47865 18.2577 9.25628 18.3214 9.15905 18.4973C8.01209 20.5637 7.62112 21.2678 7.47023 21.5184L7.47368 21.5192C7.46105 21.5612 7.46105 21.5612 7.32297 21.7585C7.27607 21.8252 7.22507 21.8894 7.17308 21.9525C6.35703 22.9412 6.26228 24.1854 6.91938 25.281C7.32641 25.9596 7.99912 26.4249 8.81366 26.5912C9.63705 26.7586 10.5049 26.6028 11.2581 26.1509L15.8988 23.367C16.0048 23.3035 16.0796 23.2026 16.1094 23.0831C16.1393 22.9637 16.1207 22.8396 16.0571 22.7336C15.9262 22.5155 15.642 22.4438 15.4239 22.5752L13.1346 23.9486C13.0106 24.0231 12.8496 23.9831 12.7753 23.8589C12.7008 23.735 12.741 23.5741 12.865 23.4996L15.1545 22.1262L15.898 21.6801C16.004 21.6165 16.0789 21.5156 16.1088 21.3964C16.1386 21.2769 16.1201 21.1526 16.0564 21.0468C15.9254 20.8285 15.6412 20.7575 15.4233 20.8884L12.3902 22.7079C12.2659 22.7825 12.1054 22.7422 12.0309 22.6182C11.9565 22.4942 11.9968 22.3333 12.1206 22.2589L15.8431 20.0258C15.949 19.9622 16.0238 19.8615 16.0537 19.7419C16.0835 19.6225 16.065 19.4984 16.0015 19.3925C15.938 19.2867 15.8372 19.2119 15.7176 19.1821C15.5974 19.1522 15.4738 19.1707 15.3682 19.2341L14.6791 19.6475C14.6789 19.6475 14.6789 19.6476 14.6788 19.6476H14.6786L11.6457 21.4671C11.5214 21.5419 11.3607 21.5016 11.2864 21.3774C11.212 21.2535 11.2523 21.0926 11.3761 21.0181L14.4092 19.1986C14.5151 19.135 14.59 19.0341 14.6199 18.9149C14.6527 18.7841 14.6278 18.6502 14.55 18.5381C14.4152 18.3431 14.1269 18.2913 13.9083 18.4226L9.27098 21.2046C9.16947 21.2653 9.03943 21.2505 8.95431 21.1684C8.86904 21.086 8.84985 20.9566 8.90725 20.8532L9.87153 19.1158C9.96829 18.9422 9.96451 18.7277 9.86136 18.5558L9.86141 18.5557Z" fill="#103E13"/>
<path d="M27.9984 25.5502C27.5151 26.3563 26.7202 26.9079 25.7601 27.1041C24.8084 27.2981 23.8076 27.1192 22.9413 26.5998L18.3006 23.8159C18.0748 23.6804 17.9151 23.4653 17.8511 23.2097C17.7877 22.9547 17.8274 22.6899 17.9626 22.4642C18.0471 22.3232 18.1655 22.212 18.3028 22.1298L18.3015 22.129C18.0756 21.9936 17.9159 21.7784 17.8523 21.5232C17.7883 21.2681 17.828 21.003 17.9635 20.7771C18.0507 20.6319 18.1703 20.5185 18.3067 20.4379C18.1086 20.3017 17.9659 20.1037 17.9072 19.8689C17.8433 19.6135 17.883 19.3487 18.0184 19.123C18.1537 18.8972 18.369 18.7376 18.6242 18.6739C18.7039 18.6538 18.7848 18.644 18.8648 18.644C19.0219 18.6442 19.1761 18.684 19.3177 18.7581C19.3264 18.5746 19.381 18.3944 19.4883 18.2398C19.7823 17.8155 20.3714 17.6981 20.8302 17.9734L24.6305 20.2529L24.1406 19.3706C23.9527 19.0338 23.9596 18.6182 24.1588 18.286C24.2559 18.1243 24.3946 17.99 24.5604 17.897C24.6967 17.8216 24.8443 17.7858 24.9899 17.7858C25.3026 17.786 25.6064 17.9509 25.7681 18.243C26.3315 19.2583 27.3949 21.1731 27.4696 21.3068C27.4855 21.3299 27.5336 21.3988 27.5747 21.4573C27.6139 21.5129 27.6562 21.566 27.7 21.6188C28.6489 22.7691 28.7634 24.2753 27.9983 25.5503L27.9984 25.5502ZM27.296 21.9526C27.2439 21.8895 27.1927 21.825 27.1461 21.7586C27.0044 21.5575 27.0008 21.5523 26.9902 21.4996C26.8245 21.2256 26.4205 20.4982 25.3097 18.4971C25.2123 18.3214 24.9909 18.2573 24.8147 18.3547C24.7279 18.4033 24.6582 18.471 24.6074 18.5558C24.5044 18.7275 24.5004 18.942 24.5977 19.1162L25.5616 20.853C25.6192 20.9567 25.6 21.0859 25.5149 21.1682C25.43 21.2507 25.3001 21.2651 25.1981 21.2044L20.5607 18.4225C20.3421 18.2914 20.054 18.3428 19.9189 18.5379C19.8411 18.6501 19.8164 18.7839 19.8488 18.9146C19.8787 19.034 19.9536 19.1347 20.0597 19.1983C20.0601 19.1985 20.0602 19.1988 20.0606 19.199L23.0926 21.018C23.2166 21.0924 23.2568 21.2531 23.1823 21.3773C23.1079 21.5011 22.9473 21.5416 22.823 21.467L19.1006 19.2339C18.9949 19.1706 18.8706 19.1519 18.7512 19.1819C18.6315 19.2118 18.5308 19.2866 18.4674 19.3927C18.4037 19.4984 18.3854 19.6226 18.4149 19.742C18.4447 19.8613 18.5197 19.9622 18.6256 20.0258L19.35 20.4603L22.3479 22.2589C22.4719 22.3334 22.5121 22.4941 22.4376 22.6182C22.3632 22.7421 22.2026 22.7824 22.0783 22.7079L19.0456 20.8884C18.8275 20.7572 18.5435 20.8284 18.4123 21.0469C18.3487 21.1528 18.3303 21.2769 18.3598 21.3963C18.3897 21.5157 18.4646 21.6164 18.5707 21.6802L19.3142 22.1263L21.6034 23.4997C21.7274 23.5742 21.7676 23.7349 21.6931 23.859C21.6187 23.9828 21.4581 24.0235 21.3338 23.9487L19.0446 22.5753C18.939 22.512 18.8152 22.4933 18.6952 22.5233C18.5758 22.5531 18.4748 22.6279 18.4113 22.7337C18.3478 22.8396 18.3293 22.9639 18.3588 23.0831C18.3887 23.2025 18.4636 23.3032 18.5697 23.367L23.2104 26.1509C23.9635 26.6027 24.832 26.7592 25.6549 26.5912C26.4693 26.425 27.142 25.9597 27.549 25.2811C28.2068 24.1853 28.1122 22.9409 27.2963 21.9526L27.296 21.9526Z" fill="#103E13"/>
</svg>
